<?xml version="1.0" encoding="UTF-8" standalone="no"?>
<svg
   xmlns:dc="http://purl.org/dc/elements/1.1/"
   xmlns:cc="http://creativecommons.org/ns#"
   xmlns:rdf="http://www.w3.org/1999/02/22-rdf-syntax-ns#"
   xmlns:svg="http://www.w3.org/2000/svg"
   xmlns="http://www.w3.org/2000/svg"
   xmlns:xlink="http://www.w3.org/1999/xlink"
   id="svg8"
   version="1.1"
   viewBox="0 0 550 660"
   height="660"
   width="550">
  <defs
     id="defs2">
    <style
       id="style924">.cls-1,.cls-4{fill:#ff6700;}.cls-2{fill:none;}.cls-3{fill:#ff8b00;}.cls-4{opacity:0.5;}.cls-5{fill:#ff7900;}.cls-6{fill:#ffa300;}.cls-7{fill:url(#linear-gradient);}.cls-8{fill:url(#linear-gradient-2);}.cls-9{fill:url(#linear-gradient-3);}.cls-10{fill:#ffbc00;}</style>
    <linearGradient
       id="a-3"
       x1="54.418999"
       y1="9.7580004"
       x2="16.719999"
       y2="75.055"
       gradientUnits="userSpaceOnUse">
      <stop
         offset="0"
         stop-color="#ff9640"
         id="stop1057" />
      <stop
         offset=".6"
         stop-color="#fc4055"
         id="stop1059" />
      <stop
         offset="1"
         stop-color="#e31587"
         id="stop1061" />
    </linearGradient>
    <linearGradient
       id="c-9"
       x1="35.583"
       y1="53.055"
       x2="67.225998"
       y2="21.412001"
       gradientUnits="userSpaceOnUse">
      <stop
         offset="0"
         stop-color="#0090ed"
         id="stop1071" />
      <stop
         offset=".325"
         stop-color="#5b6df8"
         id="stop1073" />
      <stop
         offset=".529"
         stop-color="#9059ff"
         id="stop1075" />
      <stop
         offset="1"
         stop-color="#b833e1"
         id="stop1077" />
    </linearGradient>
    <style
       id="style1166">.cls-1{fill:#008c74;}.cls-2{fill:#009377;}.cls-3{fill:#00997c;}.cls-4{fill:#00586d;}.cls-5{fill:#00607a;}</style>
    <style
       id="style1215">.cls-1{fill:#fff;}.cls-2{fill:#bf6211;}.cls-3{fill:#b25814;}.cls-4{fill:#d66a18;}</style>
    <linearGradient
       xlink:href="#c-9"
       id="linearGradient1027"
       x1="53.819042"
       y1="193.55228"
       x2="101.22533"
       y2="193.55228"
       gradientUnits="userSpaceOnUse"
       gradientTransform="matrix(3.7136967,0,0,3.7136967,-78.791373,-154.43951)" />
    <linearGradient
       gradientTransform="matrix(0.98258224,0,0,0.98258224,-80.756538,-152.47435)"
       xlink:href="#a-3"
       id="linearGradient1064"
       x1="214.61523"
       y1="561.25909"
       x2="659.31641"
       y2="561.25909"
       gradientUnits="userSpaceOnUse" />
  </defs>
  <metadata
     id="metadata5">
    <rdf:RDF>
      <cc:Work
         rdf:about="">
        <dc:format>image/svg+xml</dc:format>
        <dc:type
           rdf:resource="http://purl.org/dc/dcmitype/StillImage" />
        <dc:title></dc:title>
      </cc:Work>
    </rdf:RDF>
  </metadata>
  <g
     id="layer1"
     style="display:inline;opacity:0.997"
     transform="translate(-37.159722,-69.008863)">
    <circle
       r="88.026283"
       cy="564.35498"
       cx="209.10251"
       id="path1334"
       style="fill:url(#linearGradient1027);fill-opacity:1;stroke:none;stroke-width:0.264583;stroke-linejoin:round" />
    <path
       id="path915"
       style="fill:url(#linearGradient1064);fill-opacity:1;stroke:none;stroke-width:0.264583;stroke-linejoin:round"
       d="m 363.47618,103.8069 c -15.56789,0.0735 -31.96506,1.40499 -42.54849,3.75377 -63.82849,14.16537 -116.02893,55.71844 -143.55488,114.27124 -21.63567,46.02325 -24.96559,99.34442 -9.41322,150.76304 12.93094,42.7519 33.10415,76.35259 70.44348,100.85478 25.05917,16.44395 26.73636,20.11821 34.57821,31.93144 3.50653,7.11715 7.62128,13.32016 5.92331,20.50759 -64.69526,3.74422 -94.71286,42.15034 -96.64003,100.44846 0,10.57973 1.14034,20.37222 3.41985,29.04759 -1.9684,-0.15944 -3.94927,-0.23954 -5.93195,-0.23989 -27.41075,2.6e-4 -49.63147,14.91946 -49.63192,33.32336 -2.2e-4,1.92607 0.24828,3.84855 0.74269,5.7458 h 97.77845 c 0.0143,-0.055 0.0284,-0.11001 0.0422,-0.16504 0.54401,0.0118 1.0813,0.0358 1.63508,0.0307 18.52915,-0.16801 37.75789,-7.33467 54.67725,-18.49635 13.96755,-7.89455 23.54223,-16.6087 35.67617,-27.71572 15.56095,-14.24404 28.48802,-35.85469 38.51838,-56.75757 17.02827,-35.48618 23.16734,-102.88003 16.96298,-127.81821 -5.65767,-22.74071 -5.79976,-36.14998 -0.60452,-56.67695 5.13838,-20.30245 18.69774,-40.88491 34.84137,-52.88673 3.64292,-2.70828 6.91132,-5.30993 7.2619,-5.78034 1.46557,-1.96563 21.91823,-10.69006 30.46196,-12.99427 13.13996,-3.54383 36.27599,-3.51342 49.56475,0.0652 21.65683,5.83221 43.5503,20.10538 55.17238,35.96981 l 3.22794,4.40626 2.51019,-8.55729 c 6.00939,-20.48664 8.48629,-38.18038 8.48629,-60.62072 0,-65.97783 -34.40067,-130.12444 -90.04829,-167.9141 -24.79454,-16.83759 -58.36541,-29.52859 -87.85859,-33.21588 -7.3092,-0.91382 -16.35226,-1.32412 -25.693,-1.28004 z" />
    <path
       id="path1261-3-2"
       style="fill:#ffaa48;fill-opacity:1;stroke-width:0.999998"
       d="m 377.85503,208.39133 c -10.64958,0.0502 -21.86724,0.96103 -29.10706,2.56776 -43.66334,9.69013 -80.42694,43.3233 -93.22057,85.11613 -10.46329,34.18023 -6.26297,70.63021 2.76543,99.74362 6.7251,21.68606 21.51993,43.36235 38.13454,63.61837 13.035,15.8918 23.58127,30.55593 29.18193,48.64932 6.1077,16.12368 9.66783,34.35437 10.37663,53.1362 l 0.13258,6.97596 c -2.6e-4,34.87317 -9.82879,67.91627 -26.79072,90.0694 8.42775,-7.1785 16.33699,-15.11946 23.77583,-23.52631 14.94113,-20.97303 27.20119,-39.44269 37.29012,-69.51576 7.43745,-22.16958 14.47116,-64.04437 10.22692,-96.54449 -2.07581,-15.89555 -0.36283,-33.23432 3.50621,-47.19273 5.50014,-19.84373 14.77625,-33.92384 25.81967,-42.13397 2.492,-1.85265 4.72865,-3.63366 4.96855,-3.95527 1.00255,-1.34465 14.99312,-7.31115 20.83766,-8.8874 8.98871,-2.42437 24.81626,-2.40391 33.90676,0.0442 14.81483,3.98966 29.79079,13.75245 37.74115,24.60487 l 2.20694,3.01489 1.71762,-5.85516 c 4.11088,-14.01438 5.80529,-26.11724 5.80529,-41.46803 0,-45.13367 -23.5324,-89.01341 -61.59946,-114.86423 -16.96123,-11.51814 -39.92517,-20.20175 -60.10065,-22.72413 -5.00001,-0.62512 -11.18543,-0.90334 -17.57518,-0.87319 z" />
    <circle
       style="fill:#ffaa48;fill-opacity:1;stroke:none;stroke-width:0.264583;stroke-linejoin:round"
       id="path898"
       cx="91.041138"
       cy="554.14575"
       r="21.836275" />
    <path
       id="path1267-0"
       style="opacity:0.997;fill:#fe8744;fill-opacity:1;stroke-width:0.999995"
       d="m 148.18557,353.38201 c 0,0 -9.32706,-4.57558 -18.46444,-1.36231 0,0 1.67267,5.87766 1.95092,11.30566 0.23692,4.62175 -0.63102,7.02052 -1.49556,11.97517 -1.80024,5.04634 -2.97801,8.2873 -9.29443,11.35702 -32.65218,12.07791 -53.913793,42.88838 -58.475883,77.54686 -1.20845,9.17982 -0.5446,26.32913 1.31445,33.96679 1.6229,6.6675 2.29393,7.05153 14.70898,8.44141 3.63935,0.40725 12.40335,0.38056 19.47657,-0.0606 11.179963,-0.69725 14.384383,-1.36335 24.517573,-5.09179 12.76995,-4.69868 20.53615,-9.00156 29.56055,-16.37696 15.687,-12.82058 26.78965,-29.40877 32.14843,-48.03125 l 2.0918,-7.26562 c -2.45939,-3.73717 -4.83046,-7.54072 -7.00977,-11.5 -2.46977,-4.48699 -4.76752,-9.11622 -6.91406,-13.88867 -2.14654,-4.77245 -4.14184,-9.68798 -6.00391,-14.7461 -1.86207,-5.05811 -3.72976,-10.21941 -5.20702,-15.60351 -1.27118,-4.63303 -3.236,-8.89834 -4.81539,-12.67571 -2.15937,-3.49021 -3.7688,-4.81024 -8.08881,-7.99039 z" />
  </g>
</svg>
