<?xml version="1.0" encoding="UTF-8" standalone="no"?>
<svg
   xmlns:svg="http://www.w3.org/2000/svg"
   xmlns="http://www.w3.org/2000/svg"
   width="320"
   height="320"
   viewBox="0 0 84.666665 84.666669"
   version="1.1"
   id="ila-o-five-1">
  <defs />
  <rect
     ry="3.013207"
     y="52.360947"
     x="31.273216"
     height="17.413492"
     width="22.043579"
     id="m1"
     style="fill:#e6e6e6;fill-opacity:1;stroke:#cdcdcd;stroke-width:0.423" />
  <path
     d="m 30.710315,25.183109 v 21.918085 a 11.666975,11.712256 0 0 0 -0.04091,0.976923 11.666975,11.712256 0 0 0 11.667132,11.712112 11.666975,11.712256 0 0 0 11.665618,-11.556084 h 0.0073 V 25.183109 Z"
     style="display:inline;fill:#002d70;stroke:#20385c;stroke-width:0.4;stroke-miterlimit:4;stroke-dasharray:none;stroke-opacity:1"
     id="h1" />
  <rect
     y="22.438583"
     x="33.503426"
     height="25.612421"
     width="17.655273"
     id="h2"
     style="display:inline;fill:#0057d6;stroke:#2b69c7;stroke-width:0.4;stroke-miterlimit:4;stroke-dasharray:none;stroke-opacity:1" />
  <rect
     y="18.242239"
     x="36.3759"
     height="30.120209"
     width="11.838218"
     id="h3"
     style="display:inline;fill:#3285ff;stroke:#4d94ff;stroke-width:0.4;stroke-miterlimit:4;stroke-dasharray:none;stroke-opacity:1" />
  <ellipse
     ry="11.712256"
     rx="11.666974"
     cy="48.309277"
     cx="42.32922"
     id="c1"
     style="display:inline;fill:#000000;stroke:#4d4d4d;stroke-width:0.4;stroke-miterlimit:4;stroke-dasharray:none;stroke-opacity:1" />
  <ellipse
     ry="9.4169807"
     rx="9.3805742"
     style="display:inline;fill:#4d4d4d;stroke-width:0.999998"
     id="c2"
     cx="42.32922"
     cy="48.309277" />
  <path
     d="m 70.19796,31.3 -3.014946,-5.222039 6.029892,-1e-6 z"
     transform="matrix(0.5862859,0,0,0.58856137,1.1389518,21.028199)"
     id="path885"
     style="display:inline;fill:#e6e6e6;fill-opacity:1;stroke:none;stroke-width:2.25207;stroke-linecap:round;stroke-linejoin:round" />
  <rect
     y="30.525139"
     x="49.183628"
     height="1.1269467"
     width="1.1225897"
     id="r3"
     style="display:inline;fill:#06fa74;stroke-width:0.999998" />
  <rect
     style="display:inline;fill:#ff0000;stroke-width:0.999998"
     id="r2"
     width="1.1225897"
     height="1.1269467"
     x="49.183628"
     y="32.337257" />
  <rect
     style="display:inline;fill:#ff0000;stroke-width:0.999998"
     id="r1"
     width="1.1225897"
     height="1.1269467"
     x="49.183628"
     y="34.149391" />
</svg>
