<?xml version="1.0" encoding="UTF-8" standalone="no"?>
<svg
   xmlns:svg="http://www.w3.org/2000/svg"
   xmlns="http://www.w3.org/2000/svg"
   width="320"
   height="320"
   viewBox="0 0 84.666665 84.666669"
   version="1.1"
   id="ila-o-five-3">
  <defs />
  <rect
     ry="4.0189447"
     y="52.543568"
     x="30.341814"
     height="18.175598"
     width="23.973536"
     id="m1"
     style="fill:#f2f2f2;fill-opacity:0.82;stroke:#f2f2f2;stroke-width:0.423;stroke-linecap:round;stroke-linejoin:round;stroke-miterlimit:4;stroke-dasharray:none;stroke-opacity:0.75067" />
  <path
     id="h1"
     style="fill:#3285ff;fill-opacity:0.75067;stroke:#f2f2f2;stroke-width:0.5;stroke-miterlimit:4;stroke-dasharray:none;stroke-opacity:0.32549"
     d="m 30.366581,29.176812 c 0.03775,7.670462 -0.03037,12.043006 -0.04223,19.630023 7.9e-5,6.544545 5.390308,11.849926 12.039517,11.850005 6.586705,-6e-6 11.950749,-5.209688 12.038579,-11.692145 h 0.0072 V 31.981452 c -0.01888,-2.765164 -2.84949,-2.80464 -2.84949,-2.80464 z" />
  <path
     id="h2"
     style="fill:#3285ff;fill-opacity:0.75067;stroke:#f2f2f2;stroke-width:0.499999;stroke-miterlimit:4;stroke-dasharray:none;stroke-opacity:0.32549"
     d="M 32.993462,25.095391 V 48.12806 c -0.0048,0.121901 -0.0071,0.243886 -0.0072,0.365878 5.4e-5,5.198017 4.198526,9.411832 9.377617,9.411887 5.179212,1.15e-4 9.377872,-4.213748 9.377926,-9.411887 0,-0.08725 -0.0012,-0.174486 -0.0036,-0.261702 V 28.3582 c 6e-6,-0.0036 6e-6,-0.0073 0,-0.01099 0.01289,-3.244483 -3.25062,-3.25183 -3.25062,-3.25183 h -0.01095 z" />
  <ellipse
     ry="9.4"
     rx="9.4"
     style="fill:#092041;fill-opacity:0.752688;stroke:#f2f2f2;stroke-width:0.5;stroke-miterlimit:4;stroke-dasharray:none;stroke-opacity:0.327078"
     id="c2"
     cx="42.363895"
     cy="48.4" />
  <rect
     style="display:inline;fill:#06fa74;stroke-width:0.999999"
     id="r3"
     width="1.5797042"
     height="1.585477"
     x="34.46125"
     y="30.426992" />
  <rect
     y="32.655109"
     x="34.46125"
     height="1.585477"
     width="1.5797042"
     id="r2"
     style="display:inline;fill:#11386e;fill-opacity:1;stroke-width:1" />
</svg>
