<?xml version="1.0" encoding="UTF-8" standalone="no"?>
<svg xmlns:svg="http://www.w3.org/2000/svg" xmlns="http://www.w3.org/2000/svg" version="1.1"
   width="100%" height="70" viewBox="0 0 29 7" id="pg">
  <path transform="scale(0.1)"
     d="M 10 10 L 10 20 L 20 20 L 20 30 L 30 30 L 30 40 L 40 40 L 40 50 L 50 50 L 50 60 L 110 60 L 110 50 L 120 50 L 120 40 L 130 40 L 130 30 L 140 30 L 140 20 L 150 20 L 150 30 L 160 30 L 160 40 L 170 40 L 170 50 L 180 50 L 180 60 L 240 60 L 240 50 L 250 50 L 250 40 L 260 40 L 260 30 L 270 30 L 270 20 L 280 20 L 280 10 L 270 10 L 160 10 L 140 10 L 20 10 L 10 10 z "
     style="fill:#eeeeee;stroke-width:50"
     id="g1" />
  <path transform="scale(0.1)"
     d="M 40 20 L 40 30 L 50 30 L 50 20 L 40 20 z M 50 30 L 50 40 L 60 40 L 60 30 L 50 30 z M 60 30 L 70 30 L 70 20 L 60 20 L 60 30 z M 70 30 L 70 40 L 80 40 L 80 30 L 70 30 z M 80 40 L 80 50 L 90 50 L 90 40 L 80 40 z M 70 40 L 60 40 L 60 50 L 70 50 L 70 40 z M 170 20 L 170 30 L 180 30 L 180 20 L 170 20 z M 180 30 L 180 40 L 190 40 L 190 30 L 180 30 z M 190 30 L 200 30 L 200 20 L 190 20 L 190 30 z M 200 30 L 200 40 L 210 40 L 210 30 L 200 30 z M 210 40 L 210 50 L 220 50 L 220 40 L 210 40 z M 200 40 L 190 40 L 190 50 L 200 50 L 200 40 z "
     style="fill:#333333;fill-opacity:1;stroke:none;stroke-width:50"
     id="p1" />
</svg>
