<?xml version="1.0" encoding="UTF-8"?>
<svg width="246.76" height="305.24" version="1.1" viewBox="0 0 49.352 61.048" xml:space="preserve" xmlns="http://www.w3.org/2000/svg"><defs><clipPath id="clipPath4547"><path d="m0 600h600v-600h-600z"/></clipPath></defs><g transform="translate(57.432 -88.909)"><g transform="matrix(.26667 0 0 -.26667 -65.533 151.17)" clip-path="url(#clipPath4547)" fill-opacity=".080685"><path d="m134.36 184.5c0.247 0.081 0.487 0.129 0.712 0.166 0.107 0.018 0.211 0.039 0.308 0.058-0.971-1.231-1.967-2.765-2.382-4.058-0.076 0.092-0.15 0.187-0.217 0.293-0.155 0.198-0.266 0.428-0.392 0.664-0.044 0.123-0.087 0.249-0.132 0.376-0.036 0.128-0.041 0.26-0.066 0.394-0.013 0.132 0.016 0.263 0.019 0.399 0.031 0.129 0.084 0.254 0.124 0.384l0.227 0.343 0.308 0.291c0.235 0.155 0.468 0.326 0.73 0.42 0.252 0.121 0.51 0.205 0.761 0.27m13.541-151.99-0.193-0.37c-0.086-0.137-0.135-0.31-0.211-0.482-0.072-0.177-0.149-0.364-0.238-0.556-0.07-0.206-0.136-0.427-0.22-0.648-0.177-0.437-0.279-0.937-0.434-1.414-0.093-0.492-0.249-0.978-0.297-1.443-0.039-0.235-0.076-0.46-0.111-0.674-9e-3 -0.213-0.024-0.418-0.041-0.607-0.012-0.19-0.044-0.369-0.025-0.52 7e-3 -0.157 0.013-0.293 0.017-0.406 1e-3 -0.233 2e-3 -0.367 2e-3 -0.367s-0.057 0.116-0.146 0.332c-0.042 0.111-0.093 0.244-0.152 0.398-0.07 0.155-0.09 0.338-0.119 0.536-0.031 0.199-0.063 0.418-0.087 0.651-6e-3 0.23 1e-3 0.473 0.015 0.725 0.01 0.253 0.016 0.516 0.081 0.772 0.049 0.26 0.099 0.525 0.149 0.786 0.083 0.256 0.168 0.512 0.249 0.761 0.072 0.255 0.186 0.489 0.299 0.715 0.106 0.229 0.219 0.443 0.328 0.645 0.128 0.199 0.257 0.379 0.376 0.545 0.221 0.343 0.476 0.547 0.642 0.708 0.171 0.157 0.272 0.243 0.272 0.243s-0.053-0.123-0.156-0.33m-6.937 1.986c-0.216-0.119-0.518-0.309-0.852-0.561-0.171-0.12-0.345-0.264-0.526-0.42-0.188-0.145-0.361-0.332-0.556-0.501-0.366-0.368-0.759-0.758-1.106-1.194-0.368-0.416-0.693-0.867-0.999-1.291-0.302-0.428-0.557-0.844-0.775-1.206-0.209-0.368-0.363-0.678-0.47-0.906-0.097-0.236-0.153-0.371-0.153-0.371s5e-3 0.146 0.01 0.4c0.026 0.255 0.09 0.628 0.227 1.047 0.139 0.419 0.338 0.901 0.613 1.38 0.267 0.482 0.605 0.969 0.983 1.423 0.188 0.227 0.397 0.436 0.601 0.645 0.204 0.208 0.43 0.389 0.644 0.565 0.441 0.338 0.88 0.622 1.293 0.795 0.197 0.102 0.393 0.167 0.566 0.218 0.169 0.059 0.321 0.099 0.45 0.116 0.255 0.042 0.399 0.058 0.399 0.058s-0.126-0.071-0.349-0.197m-19.557-23.429c5e-3 -0.272-0.01-0.533-0.065-0.775-0.041-0.244-0.088-0.472-0.132-0.681-0.031-0.211-0.123-0.391-0.176-0.555-0.064-0.162-0.118-0.303-0.163-0.418-0.095-0.229-0.156-0.356-0.156-0.356s5e-3 0.143 0.013 0.391c7e-3 0.122 0.018 0.268 0.029 0.438 4e-3 0.168 0.044 0.354 0.033 0.561-4e-3 0.205-6e-3 0.426 1e-3 0.657 0.017 0.233-0.011 0.475-0.034 0.724-0.028 0.249-0.027 0.507-0.077 0.762-0.051 0.257-0.099 0.517-0.149 0.777-0.06 0.256-0.151 0.505-0.222 0.757-0.065 0.253-0.173 0.488-0.269 0.719-0.107 0.226-0.168 0.47-0.288 0.665-0.11 0.201-0.205 0.399-0.294 0.583-0.177 0.37-0.384 0.664-0.492 0.884-0.115 0.219-0.18 0.345-0.18 0.345s0.107-0.093 0.295-0.255c0.175-0.173 0.455-0.385 0.717-0.724 0.134-0.167 0.28-0.351 0.426-0.553 0.16-0.194 0.271-0.43 0.402-0.667 0.123-0.241 0.277-0.48 0.353-0.758 0.088-0.272 0.194-0.544 0.27-0.825 0.047-0.287 0.093-0.575 0.138-0.858 0.055-0.283 0.011-0.567 0.02-0.838m-8.972 4.758c-0.247-0.478-0.531-1.035-0.811-1.639-0.279-0.604-0.556-1.254-0.779-1.915-0.102-0.332-0.224-0.663-0.288-0.995-0.033-0.168-0.07-0.331-0.11-0.493-0.021-0.164-0.04-0.325-0.061-0.483-0.043-0.318-0.026-0.624-0.023-0.915 0.051-0.282 0.054-0.568 0.153-0.801 0.038-0.123 0.074-0.24 0.11-0.353 0.054-0.103 0.106-0.202 0.155-0.295 0.092-0.192 0.189-0.354 0.3-0.464 0.198-0.239 0.311-0.39 0.311-0.39s-0.15 0.097-0.414 0.29c-0.141 0.087-0.277 0.227-0.423 0.407-0.077 0.09-0.158 0.184-0.242 0.282-0.06 0.118-0.124 0.239-0.19 0.366-0.159 0.251-0.217 0.557-0.306 0.88-0.046 0.324-0.108 0.676-0.08 1.032 0.01 0.177 0.018 0.358 0.029 0.543 0.028 0.179 0.059 0.361 0.094 0.545 0.063 0.366 0.181 0.721 0.285 1.08 0.254 0.701 0.556 1.378 0.901 1.976 0.338 0.602 0.699 1.133 1.033 1.569 0.67 0.872 1.206 1.37 1.206 1.37s-0.341-0.639-0.85-1.597m-5.225 3.223c-0.149-0.055-0.305-0.163-0.471-0.29-0.174-0.114-0.354-0.258-0.538-0.443-0.197-0.164-0.377-0.376-0.565-0.601-0.204-0.209-0.348-0.492-0.543-0.742-0.164-0.275-0.332-0.56-0.481-0.862s-0.298-0.609-0.408-0.935c-0.141-0.313-0.229-0.645-0.333-0.967-0.075-0.326-0.177-0.647-0.227-0.963-0.051-0.317-0.109-0.623-0.122-0.916-0.037-0.295-0.019-0.568-0.023-0.827 0.014-0.255 0.054-0.486 0.076-0.697 0.061-0.196 0.105-0.379 0.158-0.522 0.145-0.262 0.227-0.431 0.227-0.431s-0.127 0.118-0.35 0.361c-0.089 0.132-0.18 0.304-0.296 0.506-0.076 0.209-0.18 0.45-0.234 0.724-0.046 0.273-0.116 0.575-0.11 0.894-0.023 0.319-6e-3 0.656 0.031 1.001 0.034 0.345 0.098 0.698 0.18 1.053 0.104 0.348 0.191 0.708 0.334 1.05 0.128 0.348 0.298 0.678 0.466 1.002 0.166 0.324 0.386 0.613 0.58 0.9 0.228 0.266 0.424 0.541 0.675 0.747 0.229 0.223 0.463 0.416 0.707 0.558 0.117 0.075 0.224 0.155 0.337 0.215 0.12 0.05 0.233 0.097 0.34 0.141 0.212 0.092 0.389 0.159 0.546 0.178 0.307 0.061 0.486 0.086 0.486 0.086s-0.158-0.087-0.442-0.22m-19.425-1.808c-0.102-0.059-0.24-0.114-0.368-0.209-0.129-0.088-0.274-0.186-0.433-0.294-0.301-0.243-0.64-0.526-0.935-0.892-0.158-0.172-0.288-0.376-0.426-0.58-0.139-0.2-0.251-0.424-0.361-0.647-0.106-0.226-0.211-0.451-0.281-0.687-0.087-0.231-0.139-0.468-0.199-0.696-0.032-0.231-0.091-0.455-0.101-0.67-0.028-0.217-0.02-0.42-0.025-0.612 9e-3 -0.189 0.027-0.363 0.046-0.521 0.037-0.149 0.054-0.291 0.088-0.4 0.077-0.223 0.122-0.35 0.122-0.35s-0.093 0.095-0.254 0.284c-0.141 0.197-0.317 0.511-0.422 0.924-0.107 0.414-0.149 0.916-0.096 1.447 0.047 0.26 0.064 0.541 0.16 0.805 0.073 0.272 0.181 0.535 0.298 0.796 0.132 0.252 0.271 0.504 0.438 0.73 0.161 0.231 0.345 0.437 0.542 0.621 0.177 0.2 0.405 0.337 0.596 0.483 0.198 0.142 0.414 0.231 0.598 0.33 0.193 0.088 0.388 0.139 0.546 0.193 0.161 0.061 0.305 0.061 0.422 0.084 0.236 0.027 0.371 0.043 0.371 0.043s-0.117-0.066-0.326-0.182m-3.967 1.88c-0.325-0.225-0.673-0.457-0.976-0.738-0.155-0.135-0.306-0.276-0.44-0.423-0.128-0.154-0.271-0.293-0.373-0.453-0.12-0.151-0.205-0.311-0.299-0.463-0.092-0.152-0.143-0.31-0.219-0.45-0.101-0.293-0.195-0.554-0.221-0.745-0.046-0.193-0.071-0.303-0.071-0.303s-0.033 0.106-0.076 0.304c-0.016 0.098-0.059 0.221-0.053 0.363 1e-3 0.139-0.014 0.305 0.01 0.481 0.033 0.173 0.047 0.372 0.121 0.564 0.071 0.193 0.134 0.406 0.257 0.594 0.204 0.407 0.532 0.763 0.877 1.085 0.183 0.15 0.366 0.298 0.562 0.421 0.185 0.137 0.397 0.224 0.587 0.33 0.398 0.179 0.78 0.316 1.125 0.374 0.335 0.075 0.632 0.082 0.833 0.078 0.2-0.018 0.312-0.04 0.312-0.04s-0.108-0.039-0.295-0.107c-0.179-0.074-0.424-0.181-0.715-0.329-0.144-0.071-0.296-0.158-0.456-0.248-0.162-0.082-0.317-0.201-0.49-0.295m20.91 152.14c0.429-0.11 0.847-0.215 1.266-0.32 3.543-1.28 6.438-2.964 9.812-4.254 0.035-0.306 0.05-1.27-0.956-2.449l-0.582-0.682c-0.093 0.435-0.113 0.939-0.137 1.518-0.014 0.356-0.03 0.727-0.064 1.111l-0.026 0.29-0.287 0.043c-2.505 0.37-7.284 3.08-9.174 4.723 0.044 0.011 0.087 0.021 0.148 0.02m11.813-4.511c0.07 0.025 0.189 0.051 0.376 0.051 0.604 0 1.505-0.297 1.74-0.839-0.276-0.27-1.065-0.911-2.654-1.372 0.558 0.972 0.574 1.779 0.538 2.16m-1.363-4.092c-0.05-0.124-0.089-0.246-0.119-0.367-0.42 0.305-0.644 0.69-0.763 1.164l0.908 0.181c0.266 0.053 0.51 0.113 0.747 0.175-0.342-0.367-0.611-0.756-0.773-1.153m-9.868 7.096c2.249-1.583 5.783-3.47 8.044-3.916 0.019-0.274 0.029-0.537 0.039-0.794 0.031-0.762 0.064-1.503 0.306-2.15-2.5 1.822-6.58 4.988-8.389 6.86m13.791 16.847c-5.876 0.727-9.674 11.501-18.926 10.448-1.601-0.183-1.323 1.784-0.307 1.722 2.905-0.176 7.876 2.114 12.021 1.86-0.577-2.426-0.67-8.015 0.888-8.015 2.484 0 4.21 2.565 3.971 5.642 3.481-4.162 1.011-9.322 2.954-10.203 0.462-0.116-0.062-1.521-0.601-1.454m-4.324 12.27c-0.128 0.309-0.295 0.54-0.405 0.714-0.131 0.164-0.202 0.264-0.202 0.264s0.11-0.052 0.295-0.153c0.176-0.121 0.445-0.301 0.673-0.607 0.238-0.299 0.447-0.72 0.534-1.199 0.097-0.479 0.076-1.003-0.028-1.5-0.217-0.998-0.781-1.868-1.349-2.364-0.286-0.247-0.58-0.402-0.805-0.442-0.234-0.043-0.347 0.051-0.345 0.042 0 0 0.132-0.015 0.293 0.096 0.163 0.105 0.35 0.316 0.541 0.59 0.372 0.556 0.765 1.38 0.943 2.234 0.104 0.425 0.13 0.856 0.108 1.255-0.025 0.401-0.125 0.764-0.253 1.07m-22.731 16.053c-0.125 0.021-0.318 0.033-0.542 0.122-0.457 0.14-1.105 0.493-1.67 1.135-0.295 0.31-0.554 0.692-0.794 1.111-0.228 0.421-0.454 0.878-0.615 1.369-0.353 0.974-0.576 2.045-0.698 3.114-0.126 1.072-0.147 2.142-0.111 3.138 0.031 0.996 0.124 1.92 0.239 2.705 0.109 0.787 0.244 1.436 0.341 1.889 0.103 0.455 0.162 0.715 0.162 0.715s0.062-0.261 0.13-0.725c0.067-0.461 0.147-1.119 0.213-1.901 0.073-0.784 0.139-1.692 0.211-2.656 0.076-0.964 0.164-1.987 0.282-2.995 0.05-0.506 0.131-1.004 0.201-1.494 0.092-0.484 0.158-0.968 0.276-1.417 0.212-0.906 0.498-1.716 0.849-2.354 0.349-0.64 0.77-1.1 1.123-1.374 0.172-0.146 0.324-0.241 0.43-0.306 0.105-0.067 0.163-0.103 0.163-0.103s-0.066 9e-3 -0.19 0.027m41.548-41.017s-0.141-0.221-0.394-0.566c-2.338 0.737-6.449 2.091-6.713 2.551 0 0 1.97-4.102 2.755-6.478-0.297-0.187-0.6-0.355-0.91-0.492 0.371 0.923-3.046 8.032-3.046 8.032 0.369-0.647 8.308-3.047 8.308-3.047m33.667 41.371c2.931 4.432-1.875 6.662-3.94 3.312-16.002-25.974 24.306-43.43 33.234-66.558 7.832-20.281 8.764-39.259-8.86-53.754-0.463 0.151-0.934 0.293-1.433 0.411-14.781 46.492-60.238 52.323-69.1 60.447 0 0-2.708-4.432-8.12-4.661-2.533 5.908-12.93 15.986-16.622 14.447-12.114 0.733-17.597 5.1-19.366 10.374 0.693-0.181 1.384-0.361 2.076-0.544 0.681-0.178 1.361-0.355 2.041-0.531 2.452-3.205 7.131-5.631 15.058-6.344 8.858 1.476 16.346-15.096 18.378-14.91 1.971 0.178 7.16 2.924 5.155 4.491-0.06 0.293-0.031 0.6 0.1 0.921 0.569 1.392 2.772 2.732 4.72 2.914 1.187-0.235 2.454-0.411 3.84-0.495 1.263 0.105 3.24 1.759 5.094 3.618 0.048-0.252 0.061-0.449 0.017-0.557 2.863 1.26 5.263 4.986 5.263 4.986s-0.402 0.122-1.027 0.317c0.174 0.213 0.306 0.376 0.392 0.482-0.105 0.06-0.227 0.127-0.384 0.215-0.22 0.114-0.473 0.271-0.746 0.478-0.277 0.199-0.603 0.409-0.908 0.698-0.322 0.271-0.662 0.569-0.982 0.928-0.344 0.335-0.654 0.733-0.974 1.143-0.318 0.412-0.609 0.869-0.89 1.333-0.265 0.479-0.533 0.963-0.736 1.48-0.239 0.499-0.378 1.039-0.547 1.554-0.116 0.531-0.254 1.048-0.29 1.567-0.084 0.512-0.052 1.014-0.06 1.486 0.058 0.469 0.078 0.921 0.194 1.317 0.109 0.398 0.188 0.767 0.347 1.067 0.141 0.304 0.237 0.58 0.385 0.771 0.26 0.399 0.409 0.628 0.409 0.628s-0.14-0.235-0.383-0.645c-0.139-0.197-0.221-0.477-0.347-0.781-0.143-0.299-0.207-0.669-0.298-1.064-0.097-0.393-0.097-0.839-0.135-1.298 0.026-0.463 0.015-0.953 0.119-1.45 0.055-0.504 0.213-1.004 0.346-1.514 0.188-0.496 0.343-1.012 0.598-1.488 0.216-0.492 0.498-0.951 0.772-1.401 0.292-0.439 0.589-0.865 0.911-1.249 0.327-0.381 0.639-0.751 0.982-1.057 0.319-0.329 0.656-0.599 0.971-0.844 0.302-0.261 0.617-0.446 0.886-0.623 0.209-0.145 0.398-0.253 0.574-0.342-0.429 1.17-1.179 3.434-1.179 5.016 0 0.109 0.012 0.225 0.027 0.341-0.027 0.035-0.057 0.066-0.083 0.104-0.142 0.193-0.304 0.393-0.437 0.639-0.152 0.229-0.264 0.505-0.382 0.784-0.042 0.151-0.082 0.303-0.124 0.457-0.031 0.157-0.03 0.326-0.043 0.488-3e-3 0.165 0.04 0.334 0.061 0.5 0.051 0.16 0.128 0.316 0.194 0.469l0.307 0.395 0.375 0.306c0.271 0.154 0.538 0.316 0.82 0.395 0.275 0.107 0.547 0.173 0.809 0.22 0.258 0.062 0.506 0.093 0.733 0.112 0.146 0.014 0.279 0.03 0.408 0.042 0.68 0.852 1.34 1.548 1.765 1.887 3.667 10.067-9.9866 25.013-17.479 31.267 0 0 1.969 4.676-4.924 11.323-1.106-1.293-1.23-5.723-2.967-8.197-3.694 3.201-12.358-0.418-14.574 0.319-1.969 0.739-5.969 8.371-9.415 12.063 0 0-6.032-11.016-7.633-18.402-4.923-2.953-9.687-8.151-13.547-14.691 0.838-0.471 1.689-0.944 2.558-1.417 2.137-1.177 4.368-2.353 6.643-3.533 0.076-0.039 0.156-0.079 0.232-0.118 2.095 3.246 4.621 5.438 6.33 5.399-1.729-1.532-3.455-3.701-4.818-6.171 1.715-0.877 3.446-1.75 5.189-2.611 9.338-4.604 18.84-8.872 26.047-11.852 3.602-1.495 6.631-2.668 8.763-3.417 1.074-0.38 1.892-0.642 2.464-0.816 0.588-0.165 0.903-0.253 0.903-0.253l-0.409-1.419s-0.311 0.092-0.896 0.268c-0.592 0.192-1.475 0.49-2.544 0.891-2.154 0.801-5.179 2.034-8.768 3.597-7.181 3.122-16.622 7.565-25.893 12.342-1.731 0.895-3.45 1.8-5.156 2.709-3e-3 -6e-3 -6e-3 -0.013-9e-3 -0.02-0.479 0.245-0.962 0.488-1.435 0.733-0.04 0.021-0.078 0.041-0.118 0.062 0.01 0.015 0.018 0.03 0.027 0.045-0.062 0.034-0.126 0.067-0.19 0.1-2.258 1.222-4.47 2.44-6.59 3.655-0.864 0.49-1.706 0.978-2.536 1.465-0.039-0.065-0.077-0.131-0.114-0.198-1.115 0.63-2.199 1.251-3.249 1.861-1.929 1.133-3.736 2.233-5.382 3.282-1.643 1.053-3.131 2.048-4.422 2.968-1.296 0.917-2.387 1.766-3.277 2.478-0.872 0.732-1.557 1.309-1.988 1.741-0.444 0.419-0.681 0.643-0.681 0.643s0.234-0.228 0.67-0.655c0.424-0.44 1.097-1.03 1.959-1.779 0.878-0.727 1.957-1.598 3.237-2.537 1.276-0.945 2.749-1.969 4.377-3.053 1.63-1.08 3.42-2.213 5.331-3.382 1.039-0.629 2.115-1.271 3.219-1.921-1.157-2.044-2.229-4.211-3.188-6.476 1.919-0.759 3.868-1.519 5.858-2.291 1.445-0.567 2.909-1.126 4.38-1.684 0.553 1.863 1.344 3.64 2.254 5.222 0.047-0.025 0.094-0.052 0.142-0.077 0.474-0.256 0.955-0.51 1.433-0.764-0.801-1.645-1.426-3.394-1.78-5.158 0.584-0.222 1.167-0.441 1.75-0.664 5.491-2.072 10.999-4.094 16.177-5.954 2.593-0.915 5.099-1.799 7.477-2.638 2.384-0.814 4.63-1.611 6.72-2.291 2.087-0.692 3.998-1.33 5.703-1.849 0.852-0.266 1.649-0.515 2.385-0.745 0.732-0.207 1.403-0.396 2.01-0.569 0.607-0.169 1.148-0.321 1.62-0.453 0.488-0.105 0.902-0.193 1.238-0.266 0.673-0.143 1.033-0.22 1.033-0.22l-0.297-1.449s-0.358 0.083-1.028 0.239c-0.336 0.077-0.75 0.172-1.234 0.285-0.489 0.143-1.049 0.308-1.675 0.493-0.627 0.187-1.32 0.395-2.074 0.622-0.737 0.243-1.534 0.506-2.386 0.786-1.709 0.55-3.616 1.219-5.698 1.947-2.086 0.714-4.321 1.548-6.698 2.401-2.366 0.878-4.862 1.802-7.445 2.758-5.151 1.946-10.632 4.053-16.093 6.213-0.538 0.216-1.074 0.427-1.614 0.642-0.407 0.162-0.814 0.324-1.222 0.485-0.295 0.113-0.592 0.225-0.886 0.337 1e-3 5e-3 1e-3 0.01 3e-3 0.015-1.482 0.589-2.959 1.179-4.416 1.778-1.98 0.803-3.919 1.595-5.828 2.386-0.025-0.058-0.047-0.114-0.071-0.171-0.592 0.234-1.195 0.468-1.777 0.703-2.558 1.01-5.023 2.008-7.352 2.975-2.338 0.945-4.528 1.889-6.551 2.754-2.031 0.847-3.858 1.704-5.491 2.432-1.641 0.712-3.015 1.451-4.176 1.999-0.289 0.142-0.561 0.276-0.818 0.401-0.249 0.14-0.481 0.272-0.699 0.394-0.433 0.246-0.802 0.456-1.101 0.626-0.598 0.34-0.918 0.521-0.918 0.521s0.317-0.186 0.909-0.535c0.296-0.174 0.663-0.39 1.092-0.644 0.216-0.125 0.447-0.261 0.695-0.405 0.254-0.13 0.524-0.268 0.811-0.413 1.152-0.567 2.517-1.329 4.147-2.067 1.623-0.754 3.437-1.64 5.456-2.52 2.01-0.899 4.187-1.876 6.511-2.859 2.314-1.003 4.764-2.042 7.309-3.091 0.578-0.244 1.176-0.488 1.763-0.731-1.01-2.507-1.881-5.124-2.589-7.816 2.244-0.595 4.537-1.188 6.879-1.775 1.923-0.495 3.875-0.974 5.831-1.455-0.441 2.236-0.303 4.578 0.218 6.84 0.724-0.287 1.449-0.576 2.176-0.864-0.27-2.36-4e-3 -4.699 1.024-6.813 11.154-2.715 22.288-5.26 30.674-7.247 2.143-0.512 4.107-0.982 5.848-1.399 1.74-0.413 3.261-0.816 4.512-1.125 1.255-0.31 2.217-0.598 2.885-0.774 0.663-0.181 1.017-0.278 1.017-0.278l-0.406-1.421s-0.351 0.103-1.012 0.295c-0.661 0.185-1.629 0.491-2.864 0.817-1.238 0.327-2.724 0.746-4.46 1.186-1.731 0.443-3.685 0.943-5.817 1.488-8.177 2.074-18.993 4.728-29.883 7.553-0.473 0.124-0.949 0.247-1.424 0.371-0.438 0.115-0.876 0.23-1.315 0.345-0.331 0.082-0.662 0.163-0.992 0.244-3e-3 6e-3 -4e-3 0.012-6e-3 0.018-2.065 0.541-4.128 1.081-6.158 1.638-2.332 0.623-4.616 1.253-6.854 1.884-0.018-0.073-0.034-0.145-0.053-0.22-0.383 0.102-0.775 0.202-1.153 0.304-2.664 0.689-5.22 1.418-7.651 2.094-2.431 0.667-4.704 1.388-6.817 2.007-2.099 0.657-4.01 1.303-5.712 1.853-1.677 0.62-3.139 1.161-4.343 1.607-2.355 1.02-3.694 1.623-3.694 1.623s1.328-0.622 3.67-1.683c1.197-0.463 2.652-1.028 4.322-1.676 1.693-0.576 3.596-1.254 5.687-1.944 2.105-0.651 4.368-1.41 6.791-2.116 2.421-0.714 4.969-1.485 7.623-2.215 0.381-0.109 0.777-0.217 1.161-0.326-3.875-15.897-1.983-34.235 11.367-48.163-10.525 5.354-20.445 24.963-16.888 39.388-6.278-11.816-26.186-37.173 4.398-65.607 30.583-28.434 27.873-41.726 29.845-49.299 2.523-9.689 6.093-30.279 2.031-36.188-3.509-0.308-12.247-2.279-10.278-8.556-0.616-2.461 0.123-4.185 3.938-4.431 3.818-3.2 11.695 0 14.649 1.354-1.478 5.785-1.354 11.571 10.586 12.678 3.806 12.433-0.524 45.576-5.878 55.731l3.047 0.522c2.461-8.124 11-44.804 3.861-58.591-14.447 0.985-9.769-13.048-7.061-13.293 3.446-4.924 6.4-4.186 8.124-3.202 3.692-1.476 10.094-0.245 9.846 1.478 3.94-1.478 6.648 2.462 6.893 4.432 0.247 1.968 2.71 38.897 6.402 48.744 3.693 9.847 9.601 31.511 5.169 38.897 6.463-4.862 1.293-34.035-2.585-43.452-2.362-5.738-6.795-18.863-4.154-20.956 5.17 8.616 10.649 6.707 12.279 6.616 0 0 8.494 4.924 10.524 8.247-17.54 14.402 4.985 40.251 16.433 35.266-15.879-0.555-27.696-27.326-12.372-35.081 3.295-1.667-14.217-10.155-14.217-10.155-3.137 0.553-16.556-4.371-11.667-12.331-0.887-4.902 9.452-7.918 12.48-3.917 3.865-3.324 8.236-0.062 8.42 2.03-2.585 9.231 23.634 10.955 32.128 22.034 6.485 8.461 11.881 27.105 5.686 37.423l1.521-1.503c20.455 18.357 22.753 41.7 12.561 67.551-11.845 30.045-54.466 41.993-39.463 64.685z" fill="#888"/><g fill="#fff"><path d="m75.603 194.91c0.063-0.033 0.127-0.066 0.19-0.101 0.506-0.274 1.023-0.546 1.535-0.819 1.706-0.909 3.425-1.814 5.157-2.709 9.27-4.777 18.711-9.22 25.891-12.342 3.59-1.563 6.616-2.796 8.77-3.597 1.068-0.401 1.951-0.699 2.543-0.891 0.586-0.176 0.896-0.268 0.896-0.268l0.407 1.419s-0.313 0.088-0.901 0.253c-0.572 0.174-1.391 0.436-2.464 0.816-2.132 0.749-5.161 1.922-8.764 3.417-7.206 2.98-16.707 7.248-26.046 11.852-1.742 0.861-3.473 1.734-5.189 2.611-0.504 0.257-1.012 0.513-1.512 0.772-0.077 0.039-0.156 0.079-0.232 0.118-2.276 1.18-4.506 2.356-6.644 3.533-0.868 0.473-1.719 0.946-2.557 1.417-1.225 0.689-2.42 1.373-3.568 2.041-1.93 1.132-3.737 2.232-5.383 3.282-1.644 1.053-3.131 2.048-4.423 2.969-1.295 0.916-2.387 1.764-3.275 2.475-0.872 0.733-1.557 1.311-1.989 1.742-0.444 0.42-0.68 0.643-0.68 0.643s0.232-0.227 0.669-0.654c0.424-0.441 1.098-1.031 1.959-1.78 0.878-0.726 1.956-1.596 3.236-2.537 1.277-0.945 2.75-1.968 4.378-3.053 1.63-1.079 3.42-2.212 5.331-3.381 1.139-0.69 2.322-1.395 3.539-2.108 0.83-0.487 1.673-0.975 2.536-1.465 2.119-1.215 4.333-2.433 6.59-3.655"/><path d="m73.022 188.38c0.294-0.117 0.59-0.234 0.883-0.352 0.408-0.161 0.814-0.323 1.222-0.485 0.539-0.215 1.076-0.426 1.614-0.642 5.461-2.16 10.941-4.267 16.093-6.213 2.583-0.956 5.078-1.881 7.445-2.757 2.376-0.855 4.612-1.689 6.698-2.402 2.082-0.728 3.989-1.397 5.698-1.946 0.852-0.281 1.648-0.545 2.386-0.787 0.754-0.227 1.447-0.435 2.074-0.622 0.626-0.185 1.188-0.35 1.674-0.493 0.487-0.113 0.899-0.208 1.234-0.286 0.671-0.155 1.029-0.237 1.029-0.237l0.297 1.448s-0.36 0.077-1.033 0.22c-0.336 0.073-0.75 0.161-1.238 0.266-0.472 0.132-1.013 0.284-1.621 0.453-0.606 0.173-1.277 0.362-2.009 0.569-0.736 0.23-1.533 0.479-2.385 0.745-1.705 0.519-3.616 1.157-5.702 1.849-2.09 0.68-4.337 1.477-6.721 2.29-2.378 0.84-4.884 1.724-7.478 2.639-5.176 1.86-10.685 3.882-16.176 5.953-0.584 0.224-1.166 0.443-1.751 0.665-0.683 0.259-1.367 0.519-2.048 0.778-1.471 0.557-2.935 1.116-4.38 1.683-1.989 0.772-3.939 1.532-5.858 2.291-0.68 0.269-1.371 0.539-2.039 0.808-2.558 1.009-5.023 2.007-7.352 2.975-2.338 0.945-4.529 1.888-6.551 2.754-2.031 0.847-3.858 1.704-5.491 2.432-1.641 0.712-3.015 1.451-4.176 1.999-0.289 0.141-0.561 0.276-0.818 0.4-0.249 0.141-0.482 0.273-0.699 0.395-0.433 0.247-0.802 0.457-1.101 0.626-0.598 0.339-0.917 0.521-0.917 0.521s0.316-0.186 0.908-0.535c0.297-0.175 0.663-0.391 1.093-0.644 0.215-0.126 0.446-0.261 0.693-0.406 0.255-0.13 0.525-0.267 0.812-0.413 1.152-0.566 2.517-1.329 4.147-2.066 1.622-0.754 3.438-1.641 5.456-2.52 2.01-0.899 4.187-1.876 6.51-2.859 2.315-1.004 4.765-2.042 7.31-3.092 0.663-0.279 1.348-0.559 2.024-0.838 1.909-0.791 3.848-1.583 5.828-2.386 1.456-0.598 2.934-1.189 4.416-1.778"/><path d="m72.814 180.1c0.333-0.088 0.664-0.175 0.997-0.262 0.439-0.115 0.877-0.23 1.315-0.345 0.475-0.124 0.949-0.247 1.424-0.37 10.89-2.826 21.706-5.48 29.883-7.554 2.131-0.546 4.086-1.046 5.817-1.488 1.736-0.441 3.223-0.859 4.46-1.186 1.235-0.326 2.203-0.631 2.864-0.816 0.66-0.193 1.012-0.295 1.012-0.295l0.406 1.419s-0.353 0.098-1.018 0.28c-0.667 0.175-1.629 0.463-2.883 0.773-1.251 0.309-2.773 0.712-4.512 1.125-1.742 0.417-3.706 0.887-5.849 1.399-8.385 1.987-19.519 4.532-30.674 7.247-0.25 0.06-0.499 0.121-0.749 0.182-0.89 0.22-1.779 0.437-2.669 0.656-1.956 0.48-3.908 0.96-5.831 1.453-2.342 0.588-4.634 1.181-6.88 1.776-0.441 0.118-0.895 0.234-1.332 0.35-2.664 0.69-5.22 1.419-7.651 2.094-2.432 0.667-4.704 1.39-6.817 2.007-2.099 0.657-4.01 1.304-5.712 1.853-1.677 0.622-3.139 1.162-4.343 1.607-2.355 1.021-3.695 1.623-3.695 1.623s1.329-0.622 3.671-1.682c1.198-0.465 2.652-1.028 4.322-1.676 1.693-0.577 3.595-1.254 5.687-1.945 2.104-0.651 4.368-1.409 6.792-2.116 2.42-0.713 4.968-1.484 7.622-2.215 0.437-0.124 0.889-0.248 1.33-0.372 2.238-0.631 4.522-1.261 6.855-1.884 2.03-0.557 4.092-1.097 6.158-1.638"/></g></g></g></svg>
