<?xml version="1.0" encoding="UTF-8"?>
<svg width="1e3" height="948" version="1.1" viewBox="0 0 270.42 256.36" xml:space="preserve" xmlns="http://www.w3.org/2000/svg">
    <g fill="#979797" fill-opacity=".058824" stroke-width="1.04"><rect x="54.698" y="145.82" width="8.3485" height="7.3877" ry="1.8001"/><rect x="54.698" y="137.54" width="8.3485" height="7.3877" ry="1.8001"/><rect x="64.185" y="137.54" width="8.3485" height="7.3877" ry="1.8001"/><rect x="92.648" y="145.82" width="8.3485" height="7.3877" ry="1.8001"/><rect x="92.648" y="137.54" width="8.3485" height="7.3877" ry="1.8001"/><rect x="83.16" y="137.54" width="8.3485" height="7.3877" ry="1.8001"/><rect x="45.211" y="112.69" width="8.3485" height="7.3877" ry="1.8001"/><rect x="73.673" y="104.4" width="8.3485" height="7.3877" ry="1.8001"/><rect x="73.673" y="112.69" width="8.3485" height="7.3877" ry="1.8001"/><rect x="64.185" y="112.69" width="8.3485" height="7.3877" ry="1.8001"/><rect x="92.648" y="104.4" width="8.3485" height="7.3877" ry="1.8001"/><rect x="83.16" y="104.4" width="8.3485" height="7.3877" ry="1.8001"/><rect x="92.648" y="112.69" width="8.3485" height="7.3877" ry="1.8001"/><rect x="83.16" y="112.69" width="8.3485" height="7.3877" ry="1.8001"/><rect x="102.14" y="145.82" width="8.3485" height="7.3877" ry="1.8001"/><rect x="102.14" y="137.54" width="8.3485" height="7.3877" ry="1.8001"/><rect x="111.62" y="145.82" width="8.3485" height="7.3877" ry="1.8001"/><rect x="121.11" y="145.82" width="8.3485" height="7.3877" ry="1.8001"/><rect x="121.11" y="137.54" width="8.3485" height="7.3877" ry="1.8001"/><rect x="111.62" y="137.54" width="8.3485" height="7.3877" ry="1.8001"/><rect x="130.6" y="145.82" width="8.3485" height="7.3877" ry="1.8001"/><rect x="140.09" y="137.54" width="8.3485" height="7.3877" ry="1.8001"/><rect x="130.6" y="137.54" width="8.3485" height="7.3877" ry="1.8001"/><rect x="149.57" y="145.82" width="8.3485" height="7.3877" ry="1.8001"/><rect x="159.06" y="145.82" width="8.3485" height="7.3877" ry="1.8001"/><rect x="159.06" y="137.54" width="8.3485" height="7.3877" ry="1.8001"/><rect x="149.57" y="137.54" width="8.3485" height="7.3877" ry="1.8001"/><rect x="102.14" y="104.4" width="8.3485" height="7.3877" ry="1.8001"/><rect x="102.14" y="112.69" width="8.3485" height="7.3877" ry="1.8001"/><rect x="111.62" y="104.4" width="8.3485" height="7.3877" ry="1.8001"/><rect x="121.11" y="112.69" width="8.3485" height="7.3877" ry="1.8001"/><rect x="111.62" y="112.69" width="8.3485" height="7.3877" ry="1.8001"/><rect x="140.09" y="104.4" width="8.3485" height="7.3877" ry="1.8001"/><rect x="130.6" y="104.4" width="8.3485" height="7.3877" ry="1.8001"/><rect x="140.09" y="112.69" width="8.3485" height="7.3877" ry="1.8001"/><rect x="130.6" y="112.69" width="8.3485" height="7.3877" ry="1.8001"/><rect x="159.06" y="104.4" width="8.3485" height="7.3877" ry="1.8001"/><rect x="149.57" y="104.4" width="8.3485" height="7.3877" ry="1.8001"/><rect x="159.06" y="112.69" width="8.3485" height="7.3877" ry="1.8001"/><rect x="149.57" y="112.69" width="8.3485" height="7.3877" ry="1.8001"/><rect x="168.55" y="145.82" width="8.3485" height="7.3877" ry="1.8001"/><rect x="168.55" y="137.54" width="8.3485" height="7.3877" ry="1.8001"/><rect x="178.04" y="145.82" width="8.3485" height="7.3877" ry="1.8001"/><rect x="187.52" y="145.82" width="8.3485" height="7.3877" ry="1.8001"/><rect x="187.52" y="137.54" width="8.3485" height="7.3877" ry="1.8001"/><rect x="178.04" y="137.54" width="8.3485" height="7.3877" ry="1.8001"/><rect x="197.01" y="137.54" width="8.3485" height="7.3877" ry="1.8001"/><rect x="168.55" y="104.4" width="8.3485" height="7.3877" ry="1.8001"/><rect x="168.55" y="112.69" width="8.3485" height="7.3877" ry="1.8001"/><rect x="178.04" y="112.69" width="8.3485" height="7.3877" ry="1.8001"/><rect x="206.5" y="104.4" width="8.3485" height="7.3877" ry="1.8001"/><rect x="206.5" y="112.69" width="8.3485" height="7.3877" ry="1.8001"/><rect x="197.01" y="112.69" width="8.3485" height="7.3877" ry="1.8001"/></g>
    <g fill="#636363" fill-opacity=".058824" stroke-width="1.04"><rect x="54.698" y="154.1" width="8.3485" height="7.3877" ry="1.8001"/><rect x="54.698" y="170.67" width="8.3485" height="7.3877" ry="1.8001"/><rect x="92.648" y="154.1" width="8.3485" height="7.3877" ry="1.8001"/><rect x="92.648" y="170.67" width="8.3485" height="7.3877" ry="1.8001"/><rect x="83.16" y="162.39" width="8.3485" height="7.3877" ry="1.8001"/><rect x="73.673" y="96.117" width="8.3485" height="7.3877" ry="1.8001"/><rect x="83.16" y="96.117" width="8.3485" height="7.3877" ry="1.8001"/><rect x="83.16" y="87.834" width="8.3485" height="7.3877" ry="1.8001"/><rect x="83.16" y="79.55" width="8.3485" height="7.3877" ry="1.8001"/><rect x="102.14" y="154.1" width="8.3485" height="7.3877" ry="1.8001"/><rect x="102.14" y="170.67" width="8.3485" height="7.3877" ry="1.8001"/><rect x="102.14" y="162.39" width="8.3485" height="7.3877" ry="1.8001"/><rect x="121.11" y="154.1" width="8.3485" height="7.3877" ry="1.8001"/><rect x="111.62" y="154.1" width="8.3485" height="7.3877" ry="1.8001"/><rect x="111.62" y="170.67" width="8.3485" height="7.3877" ry="1.8001"/><rect x="121.11" y="162.39" width="8.3485" height="7.3877" ry="1.8001"/><rect x="111.62" y="162.39" width="8.3485" height="7.3877" ry="1.8001"/><rect x="130.6" y="154.1" width="8.3485" height="7.3877" ry="1.8001"/><rect x="140.09" y="170.67" width="8.3485" height="7.3877" ry="1.8001"/><rect x="159.06" y="154.1" width="8.3485" height="7.3877" ry="1.8001"/><rect x="149.57" y="154.1" width="8.3485" height="7.3877" ry="1.8001"/><rect x="159.06" y="170.67" width="8.3485" height="7.3877" ry="1.8001"/><rect x="159.06" y="162.39" width="8.3485" height="7.3877" ry="1.8001"/><rect x="149.57" y="162.39" width="8.3485" height="7.3877" ry="1.8001"/><rect x="102.14" y="96.117" width="8.3485" height="7.3877" ry="1.8001"/><rect x="102.14" y="87.834" width="8.3485" height="7.3877" ry="1.8001"/><rect x="102.14" y="79.55" width="8.3485" height="7.3877" ry="1.8001"/><rect x="111.62" y="96.117" width="8.3485" height="7.3877" ry="1.8001"/><rect x="111.62" y="87.834" width="8.3485" height="7.3877" ry="1.8001"/><rect x="121.11" y="79.55" width="8.3485" height="7.3877" ry="1.8001"/><rect x="130.6" y="96.117" width="8.3485" height="7.3877" ry="1.8001"/><rect x="140.09" y="96.117" width="8.3485" height="7.3877" ry="1.8001"/><rect x="140.09" y="87.834" width="8.3485" height="7.3877" ry="1.8001"/><rect x="149.57" y="96.117" width="8.3485" height="7.3877" ry="1.8001"/><rect x="159.06" y="96.117" width="8.3485" height="7.3877" ry="1.8001"/><rect x="159.06" y="87.834" width="8.3485" height="7.3877" ry="1.8001"/><rect x="149.57" y="87.834" width="8.3485" height="7.3877" ry="1.8001"/><rect x="149.57" y="79.55" width="8.3485" height="7.3877" ry="1.8001"/><rect x="159.06" y="79.55" width="8.3485" height="7.3877" ry="1.8001"/><rect x="187.52" y="154.1" width="8.3485" height="7.3877" ry="1.8001"/><rect x="178.04" y="154.1" width="8.3485" height="7.3877" ry="1.8001"/><rect x="178.04" y="170.67" width="8.3485" height="7.3877" ry="1.8001"/><rect x="178.04" y="162.39" width="8.3485" height="7.3877" ry="1.8001"/><rect x="168.55" y="96.117" width="8.3485" height="7.3877" ry="1.8001"/><rect x="168.55" y="79.55" width="8.3485" height="7.3877" ry="1.8001"/><rect x="178.04" y="87.834" width="8.3485" height="7.3877" ry="1.8001"/><rect x="206.5" y="96.117" width="8.3485" height="7.3877" ry="1.8001"/><rect x="206.5" y="79.55" width="8.3485" height="7.3877" ry="1.8001"/></g>
    <g fill-opacity=".058824"><rect x="45.211" y="129.25" width="8.3485" height="7.3877" ry="1.8001" style="mix-blend-mode:normal;paint-order:normal"/><rect x="54.698" y="129.25" width="8.3485" height="7.3877" ry="1.8001" style="mix-blend-mode:normal;paint-order:normal"/><rect x="64.185" y="129.25" width="8.3485" height="7.3877" ry="1.8001" style="mix-blend-mode:normal;paint-order:normal"/><rect x="73.673" y="129.25" width="8.3485" height="7.3877" ry="1.8001" style="mix-blend-mode:normal;paint-order:normal"/><rect x="83.16" y="129.25" width="8.3485" height="7.3877" ry="1.8001" style="mix-blend-mode:normal;paint-order:normal"/><rect x="92.648" y="129.25" width="8.3485" height="7.3877" ry="1.8001" style="mix-blend-mode:normal;paint-order:normal"/><rect x="35.723" y="120.97" width="8.3485" height="7.3877" ry="1.8001" style="mix-blend-mode:normal;paint-order:normal"/><rect x="26.236" y="120.97" width="8.3485" height="7.3877" ry="1.8001" style="mix-blend-mode:normal;paint-order:normal"/><rect x="54.698" y="120.97" width="8.3485" height="7.3877" ry="1.8001" style="mix-blend-mode:normal;paint-order:normal"/><rect x="45.211" y="120.97" width="8.3485" height="7.3877" ry="1.8001" style="mix-blend-mode:normal;paint-order:normal"/><rect x="73.673" y="120.97" width="8.3485" height="7.3877" ry="1.8001" style="mix-blend-mode:normal;paint-order:normal"/><rect x="64.185" y="120.97" width="8.3485" height="7.3877" ry="1.8001" style="mix-blend-mode:normal;paint-order:normal"/><rect x="92.648" y="120.97" width="8.3485" height="7.3877" ry="1.8001" style="mix-blend-mode:normal;paint-order:normal"/><rect x="83.16" y="120.97" width="8.3485" height="7.3877" ry="1.8001" style="mix-blend-mode:normal;paint-order:normal"/><rect x="102.14" y="129.25" width="8.3485" height="7.3877" ry="1.8001" style="mix-blend-mode:normal;paint-order:normal"/><rect x="111.62" y="129.25" width="8.3485" height="7.3877" ry="1.8001" style="mix-blend-mode:normal;paint-order:normal"/><rect x="121.11" y="129.25" width="8.3485" height="7.3877" ry="1.8001" style="mix-blend-mode:normal;paint-order:normal"/><rect x="130.6" y="129.25" width="8.3485" height="7.3877" ry="1.8001" style="mix-blend-mode:normal;paint-order:normal"/><rect x="140.09" y="129.25" width="8.3485" height="7.3877" ry="1.8001" style="mix-blend-mode:normal;paint-order:normal"/><rect x="149.57" y="129.25" width="8.3485" height="7.3877" ry="1.8001" style="mix-blend-mode:normal;paint-order:normal"/><rect x="159.06" y="129.25" width="8.3485" height="7.3877" ry="1.8001" style="mix-blend-mode:normal;paint-order:normal"/><rect x="102.14" y="120.97" width="8.3485" height="7.3877" ry="1.8001" style="mix-blend-mode:normal;paint-order:normal"/><rect x="121.11" y="120.97" width="8.3485" height="7.3877" ry="1.8001" style="mix-blend-mode:normal;paint-order:normal"/><rect x="111.62" y="120.97" width="8.3485" height="7.3877" ry="1.8001" style="mix-blend-mode:normal;paint-order:normal"/><rect x="140.09" y="120.97" width="8.3485" height="7.3877" ry="1.8001" style="mix-blend-mode:normal;paint-order:normal"/><rect x="130.6" y="120.97" width="8.3485" height="7.3877" ry="1.8001" style="mix-blend-mode:normal;paint-order:normal"/><rect x="159.06" y="120.97" width="8.3485" height="7.3877" ry="1.8001" style="mix-blend-mode:normal;paint-order:normal"/><rect x="149.57" y="120.97" width="8.3485" height="7.3877" ry="1.8001" style="mix-blend-mode:normal;paint-order:normal"/><rect x="168.55" y="129.25" width="8.3485" height="7.3877" ry="1.8001" style="mix-blend-mode:normal;paint-order:normal"/><rect x="178.04" y="129.25" width="8.3485" height="7.3877" ry="1.8001" style="mix-blend-mode:normal;paint-order:normal"/><rect x="187.52" y="129.25" width="8.3485" height="7.3877" ry="1.8001" style="mix-blend-mode:normal;paint-order:normal"/><rect x="197.01" y="129.25" width="8.3485" height="7.3877" ry="1.8001" style="mix-blend-mode:normal;paint-order:normal"/><rect x="206.5" y="129.25" width="8.3485" height="7.3877" ry="1.8001" style="mix-blend-mode:normal;paint-order:normal"/><rect x="215.99" y="129.25" width="8.3485" height="7.3877" ry="1.8001" style="mix-blend-mode:normal;paint-order:normal"/><rect x="168.55" y="120.97" width="8.3485" height="7.3877" ry="1.8001" style="mix-blend-mode:normal;paint-order:normal"/><rect x="187.52" y="120.97" width="8.3485" height="7.3877" ry="1.8001" style="mix-blend-mode:normal;paint-order:normal"/><rect x="178.04" y="120.97" width="8.3485" height="7.3877" ry="1.8001" style="mix-blend-mode:normal;paint-order:normal"/><rect x="206.5" y="120.97" width="8.3485" height="7.3877" ry="1.8001" style="mix-blend-mode:normal;paint-order:normal"/><rect x="197.01" y="120.97" width="8.3485" height="7.3877" ry="1.8001" style="mix-blend-mode:normal;paint-order:normal"/><rect x="225.47" y="120.97" width="8.3485" height="7.3877" ry="1.8001" style="mix-blend-mode:normal;paint-order:normal"/><rect x="215.99" y="120.97" width="8.3485" height="7.3877" ry="1.8001" style="mix-blend-mode:normal;paint-order:normal"/></g>
    <g fill="#cbcbcb" fill-opacity=".058824" stroke-width="1.04"><rect x="102.14" y="203.81" width="8.3485" height="7.3877" ry="1.8001"/><rect x="102.14" y="178.96" width="8.3485" height="7.3877" ry="1.8001"/><rect x="111.62" y="195.52" width="8.3485" height="7.3877" ry="1.8001"/><rect x="121.11" y="187.24" width="8.3485" height="7.3877" ry="1.8001"/><rect x="111.62" y="187.24" width="8.3485" height="7.3877" ry="1.8001"/><rect x="111.62" y="178.96" width="8.3485" height="7.3877" ry="1.8001"/><rect x="130.6" y="203.81" width="8.3485" height="7.3877" ry="1.8001"/><rect x="159.06" y="187.24" width="8.3485" height="7.3877" ry="1.8001"/><rect x="159.06" y="178.96" width="8.3485" height="7.3877" ry="1.8001"/><rect x="168.55" y="195.52" width="8.3485" height="7.3877" ry="1.8001"/><rect x="187.52" y="178.96" width="8.3485" height="7.3877" ry="1.8001"/><rect x="73.673" y="71.267" width="8.3485" height="7.3877" ry="1.8001"/><rect x="92.648" y="54.699" width="8.3485" height="7.3877" ry="1.8001"/><rect x="102.14" y="71.267" width="8.3485" height="7.3877" ry="1.8001"/><rect x="102.14" y="62.983" width="8.3485" height="7.3877" ry="1.8001"/><rect x="140.09" y="62.983" width="8.3485" height="7.3877" ry="1.8001"/><rect x="130.6" y="46.416" width="8.3485" height="7.3877" ry="1.8001"/><rect x="159.06" y="71.267" width="8.3485" height="7.3877" ry="1.8001"/><rect x="149.57" y="71.267" width="8.3485" height="7.3877" ry="1.8001"/><rect x="149.57" y="62.983" width="8.3485" height="7.3877" ry="1.8001"/><rect x="149.57" y="54.699" width="8.3485" height="7.3877" ry="1.8001"/><rect x="159.06" y="46.416" width="8.3485" height="7.3877" ry="1.8001"/></g>
</svg>
