<?xml version="1.0" encoding="UTF-8"?>
<svg width="763.06" height="371.66" version="1.1" viewBox="0 0 152.61 74.332" xml:space="preserve" xmlns="http://www.w3.org/2000/svg"><g transform="translate(-24.506 -38.49)"><path d="m174.86 43.933c-0.5048 0.88613-1.0784 1.7973-1.7184 2.7267l-38.652-1.3339 37.287 3.2069c-0.74666 0.97547-1.5619 1.964-2.4432 2.9579l-37.17-3.8771 35.461 5.7267c-1.0056 1.0437-2.0827 2.088-3.2269 3.1227l-34.561-6.5613 32.571 8.2915c-1.2797 1.0723-2.6312 2.1288-4.0531 3.1589l-30.845-9.1627 28.678 10.676c-1.5437 1.0373-3.1616 2.0387-4.8461 2.9949l-26.158-11.383 23.939 12.595c-1.7515 0.9176-3.5696 1.7856-5.4536 2.588l-20.811-12.895 18.694 13.757c-1.8496 0.72187-3.7549 1.3827-5.7168 1.968l-15.304-13.437 13.436 13.965c-1.8019 0.48613-3.6467 0.90987-5.5336 1.2627l-10.229-12.94 8.7005 13.209c-1.6275 0.26827-3.2845 0.48267-4.9696 0.64133l-6.0571-11.563 4.8867 11.663c-1.3251 0.10267-2.6661 0.17227-4.0245 0.20133-1.1651-1.4413-2.9456-2.3643-4.9432-2.3643-3.5107 0-6.356 2.8456-6.356 6.3557 0 3.1275 2.2605 5.7219 5.2357 6.2515l-0.0213 0.03707 8.0981 19.635c-0.60507 0.51947-1.5549 1.1621-2.7184 1.8496l-7.9573-17.968 6.7472 18.657c-0.76853 0.42213-1.5995 0.85066-2.4659 1.2707l-6.4448-20.063 5.0515 20.716c-0.90534 0.40907-1.832 0.7992-2.7531 1.1555l-4.4621-22.006 2.8917 22.579c-1.0408 0.356-2.0525 0.65254-2.9963 0.8648l-2.0592-23.579 0.34214 23.875c-0.45654 0.0504-0.88774 0.0747-1.2811 0.0613h-0.1432c-0.50693 0.0173-1.0755-0.0245-1.6856-0.11226l0.60373-23.959-2.3024 23.624c-0.93493-0.22827-1.9293-0.53254-2.9469-0.89094l3.0859-22.868-4.6224 22.294c-0.90347-0.35627-1.8091-0.74374-2.6917-1.148l5.1501-21.282-6.5075 20.639c-0.85173-0.4168-1.6661-0.84134-2.4189-1.2579l6.7627-19.516-7.9392 18.84c-1.1059-0.65893-2.0099-1.2741-2.5933-1.7747l8.0981-19.635c0.0216-0.01706 0.04133-0.03387 0.06267-0.05067 2.9307-0.56613 5.1443-3.1421 5.1443-6.2379 0-3.5101-2.8456-6.3557-6.3563-6.3557-1.9912 0-3.7667 0.91653-4.9323 2.3499-1.1773-0.03227-2.3419-0.0936-3.4939-0.18187l4.6904-11.195-5.8152 11.101c-1.6733-0.15467-3.3192-0.36507-4.9357-0.62853l8.4389-12.813-9.924 12.555c-1.8827-0.34747-3.724-0.76427-5.5224-1.2443l13.134-13.651-14.965 13.14c-1.9672-0.57973-3.8779-1.2347-5.732-1.9515l18.386-13.529-20.474 12.686c-1.8971-0.79973-3.7275-1.6653-5.4909-2.5829l23.653-12.443-25.855 11.252c-1.7024-0.95893-3.3363-1.9632-4.8955-3.0045l28.439-10.587-30.599 9.0899c-1.4411-1.0371-2.8093-2.1027-4.1061-3.1837l32.393-8.2464-34.379 6.5272c-1.1635-1.0467-2.2592-2.1021-3.2816-3.1587l35.349-5.7091-37.059 3.8656c-0.8984-1.0091-1.7291-2.0128-2.4888-3.0035l37.235-3.2021-38.603 1.3317c-0.65387-0.94693-1.2384-1.8752-1.7528-2.7773l38.044-0.89467-38.997-0.91707c-0.57253-1.1877-1.0112-2.3168-1.3024-3.364 5.2731-0.01894 58.695-1.896 53.654 4.5853-7.8099 10.041 5.3755 20.184 13.084 12.34 2.7205-3.5365 4.2976-7.4389 3.8179-8.2008-0.48-0.76213-1.3976-0.63333-2.9213-0.63333 0-0.67733 1.8336-0.62373 1.8336-0.62373l-0.02773-0.42053c-2.2573-0.1128-2.4659 0.65707-2.6525 1.1571-1.8907-1.1288-0.67707-4.3173 0.59253-4.5995l3.16-0.18907c0.11013-0.4408 0.756-1.3624 1.5397-2.056 0.62053-0.54907 7.7925-0.04507 7.7925-0.04507s0.3888 10.539 6.0013 15.611c7.7077 7.8437 20.893-2.2989 13.083-12.34-5.0408-6.4813 48.381-4.6043 53.655-4.5853-0.2912 1.0472-0.72986 2.1763-1.3029 3.364l-38.997 0.91707z" clip-path="url(#clipPath13336)" fill="#888" fill-opacity=".080685"/></g></svg>
