<?xml version="1.0" encoding="UTF-8"?>
<svg width="878.12" height="584.56" version="1.1" viewBox="0 0 175.62 116.91" xml:space="preserve" xmlns="http://www.w3.org/2000/svg">
    <g transform="translate(-17.573 -11.908)">
        <g transform="matrix(.26667 0 0 -.26667 17.211 160.16)">
            <path d="m407.82 442.96c-13.064 2.868-25.021-2.086-35.999-14.086 10.247 20.031 22.412 23.271 35.999 14.086m-154.32 0c13.585 9.185 25.751 5.945 35.998-14.086-10.977 12-22.934 16.954-35.998 14.086m-22.919-122.14c-20.168-18.507-34.619-35.83-40.477-60.031 0.7 26.868 7.763 55.328 28.861 87.295 3.173 4.808 9.058 6.738 14.46 4.747 5.403-1.992 8.627-7.282 7.92-12.997-0.766-6.206-4.454-13.223-10.764-19.014m38.835 101.08c2.491 0 4.756-1.216 6.447-3.2-2.547-0.243-4.551-2.771-4.551-5.852 0-3.242 2.218-5.871 4.954-5.871 0.903 0 1.749 0.286 2.478 0.786-0.801-5.595-4.673-9.837-9.328-9.837-5.235 0-9.478 5.366-9.478 11.986 0 6.622 4.243 11.988 9.478 11.988m18.336-25.22-0.537 0.438c-3.056 2.507-7.345 2.519-10.414 0.029-1.891-1.532-4.146-2.424-6.567-2.424-6.677 0-12.089 6.771-12.089 15.124 0 1.327 0.136 2.613 0.393 3.84 1.117 5.343-0.326 10.442-4.081 14.405l-0.244 0.257 2.738-1.096c0.018-7e-3 0.038-0.014 0.054-0.021 4.292-1.721 8.277-2.422 12.898-2.265 0.11 4e-3 0.22 5e-3 0.331 5e-3 5.801 0 10.647-5.11 11.818-11.929 1.025-5.954 2.736-10.898 5.616-16.21zm-63.766 69.385c-7.807 7.124-15.615 14.25-23.422 21.375-50.178-5.358-100.36-18.83-150.54-32.745 49.359 23.363 100.02 43.678 156.68 50.027 5.761-12.885 11.522-25.771 17.283-38.657m206.75-145.25c-6.308 5.791-9.998 12.808-10.764 19.014-0.708 5.715 2.515 11.005 7.921 12.997 5.399 1.991 11.285 0.061 14.459-4.747 21.097-31.967 28.162-60.427 28.861-87.295-5.858 24.201-20.308 41.524-40.477 60.031m-38.836 101.08c5.235 0 9.48-5.366 9.48-11.988 0-6.62-4.245-11.986-9.48-11.986-4.655 0-8.526 4.242-9.328 9.837 0.73-0.5 1.575-0.786 2.479-0.786 2.734 0 4.954 2.629 4.954 5.871 0 3.081-2.003 5.609-4.551 5.852 1.692 1.984 3.958 3.2 6.446 3.2m-18.334-25.22 0.084 0.153c2.878 5.312 4.589 10.256 5.613 16.21 1.174 6.819 6.019 11.929 11.819 11.929 0.111 0 0.221-1e-3 0.33-5e-3 4.622-0.157 8.605 0.544 12.899 2.265 0.018 7e-3 0.035 0.014 0.055 0.021l2.739 1.096-0.244-0.257c-3.756-3.963-5.201-9.062-4.08-14.405 0.254-1.227 0.391-2.513 0.391-3.84 0-8.353-5.413-15.124-12.09-15.124-2.421 0-4.675 0.892-6.565 2.424-3.072 2.49-7.36 2.478-10.416-0.029zm63.766 69.385c5.759 12.886 11.521 25.772 17.281 38.657 56.651-6.349 107.32-26.664 156.68-50.027-50.178 13.915-100.36 27.387-150.54 32.745-7.805-7.125-15.613-14.251-23.42-21.375m-161.96-145.25c23.819 35.2 86.749 35.2 110.57 0-27.109 21.665-83.455 21.665-110.57 0m1.879-40.928c23.92 26.248 82.889 26.248 106.81 0-23.424 13.857-83.385 13.857-106.81 0m1.711-34.019c24.366 17.321 79.019 17.321 103.38 0-17.66 6.069-85.723 6.069-103.38 0m1.588-28.958c26.229 8.351 73.98 8.351 100.21 0-3.739 0.158-96.476 0.158-100.21 0m1.492-25.094c26.845-2.154 70.381-2.154 97.226 0-28.774-9.523-68.447-9.526-97.226 0m1.42-22.042c20.577-9.984 73.809-9.984 94.387 0-21.482-17.329-72.905-17.329-94.387 0m1.359-19.575c21.147-18.958 70.521-18.958 91.668 0-17.542-25.14-74.125-25.14-91.668 0m-85.546 75.755c-11.752 32.35-2.291 53.593 31.258 87.904 8.493-28.05 13.266-65.516 17.523-95.038-16.572 4.987-32.855 7.537-48.781 7.134m37.646 299.14-14.533-9.228c-2.576 6.518-5.154 13.036-7.731 19.555-75.338-13.815-146.45-40.913-213.3-81.408 35.42-98.293 120.77-135.8 204.2-98.689-35.662-56.027-42.559-98.913-23.9-131.07-4.139-0.704-8.254-1.626-12.34-2.781 0.265-5.821 0.819-10.298 2.636-13.946 3.651-7.324 3.207-15.397-1.223-22.279-3.867-6.008-5.948-13.33-3.179-21.852 30.937 27.595 65.798 8.504 102.16-23.973-9.688 12.207-15.902 27.81-16.367 48.18 22.437-95.383 137.23-93.439 155.87 5.866 5.616 29.912 10.343 83.356 21.558 120.39 34.702-35.493 43.632-56.999 29.973-91.279-1.981-4.977 6.145-15.97 13.188-6.823 25.388 32.971 20.708 78.449-18.189 139.56 83.433-37.11 168.78 0.396 204.2 98.689-66.848 40.495-137.96 67.593-213.3 81.408-2.578-6.519-5.154-13.037-7.731-19.555l-14.532 9.228c-64.729 41.106-122.74 41.106-187.47 0"
			fill="#888" fill-opacity=".08" fill-rule="evenodd" />
        </g>
    </g>
</svg>
