<?xml version="1.0" encoding="UTF-8"?>
<svg width="667.95" height="830.03" version="1.1" viewBox="0 0 133.59 166.01" xml:space="preserve" xmlns="http://www.w3.org/2000/svg"><g transform="translate(-33.803 -8.7386)"><g transform="matrix(.26667 0 0 -.26667 12.253 181.24)"><path d="m388.08 512.18c-1.404 1.899-2.355 4.307-2.646 6.969-3.602-3.444-7.42-6.313-11.399-8.602l2.324 0.27zm31.908 11.227c-2.958 1.381-5.92 2.764-8.877 4.145-2.401 1.119-4.783 1.743-7.122 1.877 1.637-2.284 2.629-5.274 2.629-8.548 0-0.552-0.027-1.096-0.082-1.629-0.741 1.37-2.013 2.275-3.459 2.275-2.287 0-4.142-2.263-4.142-5.055s1.855-5.056 4.142-5.056c1.776 0 3.291 1.366 3.879 3.285 4.953 1.398 9.269 4.279 13.032 8.706m-153.46-3.306c-2.286 0-4.14-2.263-4.14-5.055s1.854-5.054 4.14-5.054c1.372 0 2.587 0.812 3.339 2.065l10.664-1.24 2.324-0.27c-3.978 2.289-7.797 5.158-11.399 8.602-0.135-1.238-0.413-2.421-0.814-3.524-0.234 2.519-1.987 4.476-4.114 4.476m-29.627 3.306c4.22-4.963 9.13-7.982 14.855-9.148-0.942 1.938-1.485 4.203-1.485 6.622 0 3.274 0.992 6.264 2.631 8.548-2.34-0.134-4.722-0.758-7.123-1.877-2.959-1.381-5.92-2.764-8.878-4.145m48.112-220.41c13.237-12.482 27.683-23.486 43.432-32.902 17.419 7.988 33.066 17.645 46.652 29.241 2.99 2.551 4.605 5.872 4.765 9.801 0.161 3.928-1.178 7.373-3.952 10.161-3.913 3.93-8 7.669-12.252 11.219-21.213 17.722-51.781 17.087-72.24-1.5-2.351-2.137-4.638-4.351-6.859-6.652-2.624-2.72-3.907-6.002-3.819-9.78 0.089-3.776 1.523-6.996 4.273-9.588m115.41 147.1c15.398 17.238 33.184 26.709 54.215 25.641-7.109 14.089-11.446 30.176-16.658 45.63l-2.482-3.084c-7.746-9.629-17.96-15.06-30.274-16.099-8.596-0.725-17.192-1.451-25.786-2.177zm-180.59 70.122c-5.589-14.99-10.477-30.401-17.582-44.481 23.87-0.278 40.235-11.279 54.155-25.776l21.043 50.046c-8.594 0.726-17.189 1.452-25.784 2.177-12.314 1.039-22.53 6.47-30.276 16.099zm108.61 39.656c-25.866 10.776-51.732 1.384-77.598 12.16-12.105-10.996-19.816-24.63-26.01-39.172l15.609 5.292c12.224 4.145 24.662 2.007 34.801-5.979 8.924-7.028 19.94-10.551 31.997-10.061l1.899 0.078c-16.82-24.885-33.639-49.77-50.457-74.654-15.454-26.868-21.111-54.825-22.732-83.228 4.864-7.981 9.983-15.65 15.365-22.993 2.578-3.516 6.051-5.62 10.361-6.277 4.308-0.656 8.251 0.318 11.759 2.905 10.197 7.527 20.9 13.544 32.125 17.989 6.994 2.768 11.357 9.187 11.357 16.71v4.975c0 8.688-5.589 16.041-13.961 18.367-2.967 0.825-5.937 1.648-8.905 2.472-9.058 2.517-15.714 8.763-18.801 17.644-1.263 3.635-2.12 7.578-2.703 11.732 6.005-8.371 13.582-15.068 25.353-17.287 8.85 11.451 17.705 6.096 29.183 6.014 10.767-0.076 24.186 5.868 31.897-6.014 9.766 2.915 17.895 9.376 25.355 17.287-0.884-4.879-2.124-9.374-3.797-13.404-3.385-8.152-9.712-13.751-18.218-16.113-2.798-0.777-5.597-1.555-8.395-2.332-8.369-2.326-13.959-9.678-13.959-18.366v-4.961c0-7.596 4.455-14.07 11.547-16.786 12.561-4.806 24.448-11.075 35.446-19.269 3.754-2.798 8.073-3.754 12.659-2.797 4.585 0.957 8.163 3.557 10.489 7.622 4.096 7.166 7.715 14.785 10.824 22.882 0.721 27.05-5.01 54.639-22.731 83.228-16.819 24.884-33.637 49.769-50.457 74.654 0.633-0.026 1.268-0.052 1.9-0.078 12.054-0.49 23.072 3.033 31.995 10.061 10.139 7.986 22.579 10.124 34.802 5.979l17.648-5.983c-6.078 15.642-14.049 29.923-28.05 39.863-25.866-10.776-51.73-1.384-77.597-12.16m86.734 35.647c73.465-59.306 56.722-148.81 82.101-184.3-7.898-1.159-15.347 1.16-22.589 5.084-18.65-120.67-64.502-194.82-143.39-212.48-78.887 17.654-124.74 91.805-143.39 212.48-7.243-3.924-14.691-6.243-22.589-5.084 25.379 35.494 8.637 125 82.102 184.3-102.96-66.695-79.536-176.9-110.89-219.26 9.268-1.315 18.008 1.316 26.507 5.763 21.885-136.8 75.69-220.85 168.26-240.86 92.567 20.013 146.37 104.07 168.26 240.86 8.499-4.447 17.239-7.078 26.508-5.763-31.351 42.357-7.926 152.56-110.89 219.26m-83.918 51.342c37.493 0 72.105-11.737 103.73-28.953 48.255-26.267 103.62-77.061 146.79-74.967-15.044-12.234-37.58-19.569-60.692-17.253 19.833-37.521 30.937-82.552 30.489-125.02-0.618-58.71 10.789-108.26 30.203-151.6-23.205 1.939-41.808 14.227-58.861 30.006-27.013-116.9-147.38-234.15-250.79-254.74 28.564 88.027-115.96 222.41-132.44 254.74-17.318-18.841-36.942-28.842-58.87-30.01 23.307 34.335 32.732 83.419 30.122 151.65-1.745 45.633 11.145 88.419 30.541 125.08-22.525-1.198-47.212 4.519-60.663 17.153 47.771 3.68 97.677 45.091 146.77 75.004 30.731 18.723 66.178 28.916 103.67 28.916" fill="#888" fill-opacity=".08313" fill-rule="evenodd"/></g></g></svg>
