<?xml version="1.0" encoding="UTF-8"?>
<svg width="229.95" height="317.36" version="1.1" viewBox="0 0 45.991 63.472" xml:space="preserve" xmlns="http://www.w3.org/2000/svg"><defs><clipPath id="clipPath4547"><path d="m0 600h600v-600h-600z"/></clipPath></defs><g transform="translate(-72.29 -15.902)"><g transform="matrix(.26667 0 0 -.26667 7.2102 136.19)"><g transform="translate(81.225 55.848)" clip-path="url(#clipPath4547)"><path d="m329.69 300.72c7e-3 5e-3 0.012 0.011 0.019 0.015-0.022-1e-3 -0.042-2e-3 -0.063-2e-3 -5.808-0.217-14.668 6.582-17.853 12.29-0.599 1.072-1.172 2.107-1.723 3.104-8.841 15.969-11.903 21.478-29.998 21.613-0.231-1.179-0.431-2.171-0.549-2.741 0.189-0.418 0.359-0.84 0.518-1.262 0.051 0.013 0.099 0.025 0.157 0.037 0.475 0.067 1.107 0.184 1.724 0.201 0.591-0.018 1.273 0.029 1.971-0.076 0.351-0.041 0.718-0.082 1.097-0.125 0.368-0.071 0.749-0.146 1.142-0.222 0.788-0.129 1.575-0.407 2.405-0.624 0.803-0.301 1.652-0.544 2.461-0.929 0.408-0.181 0.825-0.35 1.231-0.546l1.201-0.628c0.405-0.198 0.787-0.441 1.167-0.68 0.38-0.243 0.765-0.465 1.13-0.719 0.705-0.543 1.439-1.009 2.048-1.6 0.313-0.279 0.622-0.554 0.923-0.822 0.275-0.298 0.544-0.589 0.806-0.872 0.545-0.543 0.95-1.151 1.346-1.69 0.422-0.516 0.669-1.088 0.941-1.551 0.127-0.24 0.258-0.453 0.356-0.665 0.083-0.218 0.158-0.419 0.227-0.6 0.272-0.719 0.427-1.129 0.427-1.129s-0.2 0.39-0.55 1.071c-0.088 0.169-0.184 0.356-0.289 0.56-0.119 0.195-0.274 0.393-0.423 0.61-0.319 0.424-0.614 0.943-1.082 1.399-0.442 0.474-0.89 1.009-1.475 1.471-0.279 0.239-0.565 0.487-0.858 0.739-0.316 0.223-0.639 0.45-0.968 0.682-0.633 0.491-1.391 0.855-2.105 1.289-0.368 0.199-0.76 0.368-1.141 0.553-0.382 0.185-0.762 0.371-1.166 0.513l-1.187 0.459c-0.399 0.139-0.806 0.251-1.203 0.377-0.788 0.271-1.601 0.403-2.363 0.596-0.778 0.107-1.522 0.284-2.232 0.313-0.353 0.028-0.696 0.056-1.029 0.084-0.328-2e-3 -0.645-3e-3 -0.949-5e-3 -0.613 0.027-1.135-0.087-1.609-0.119-0.447-0.067-0.725-0.171-1.008-0.211-0.085-0.027-0.169-0.059-0.251-0.09 0.262-1.219 0.398-2.431 0.417-3.625 11.967-1.464 27.139-13.899 34.469-28.341 5.263-1.209 11.051-0.46 13.891 1.898m-69.267-91.613c0.887-14.343 6.839-23.633 16.239-25.752-6.134 7.349-10.628 20.294-6.248 37.185 1.545 5.957 3.134 11.472 4.536 16.336 7.778 26.985 11.789 40.92-9.681 62.426-0.497-1.062-1.076-2.03-1.758-2.826l-0.044-0.05c1.181-0.992 2.65-2.413 4.18-4.26 0.837-0.991 1.681-2.111 2.519-3.329 0.849-1.211 1.648-2.551 2.434-3.952 1.536-2.827 2.885-5.999 3.764-9.306 0.459-1.645 0.781-3.327 1.008-4.988 0.092-0.834 0.21-1.657 0.239-2.479 0.024-0.41 0.048-0.816 0.072-1.219 0-0.406 1e-3 -0.807 2e-3 -1.206 8e-3 -1.591-0.116-3.127-0.302-4.569-0.194-1.439-0.44-2.792-0.759-4.015-0.267-1.237-0.67-2.328-0.958-3.309-0.368-0.956-0.665-1.798-0.95-2.474-0.6-1.337-0.943-2.102-0.943-2.102s0.297 0.782 0.816 2.152c0.242 0.689 0.487 1.544 0.796 2.511 0.227 0.993 0.561 2.09 0.751 3.326 0.243 1.223 0.405 2.567 0.511 3.985 0.098 1.421 0.129 2.923 0.029 4.468-0.024 0.386-0.047 0.776-0.071 1.166-0.047 0.391-0.094 0.782-0.141 1.179-0.074 0.791-0.238 1.581-0.373 2.379-0.315 1.587-0.72 3.182-1.254 4.734-1.031 3.116-2.5 6.067-4.12 8.664-0.827 1.289-1.658 2.514-2.529 3.611-0.862 1.101-1.719 2.109-2.557 2.988-0.264 0.284-0.522 0.549-0.78 0.807l-0.444-0.334c-0.044-0.033-2.445-1.837-5.153-3.989 7.23-8.64 8.222-24.52 7.725-36.634-0.542-13.202-2.995-27.726-6.556-41.124m-86.655 92.785c-1.934-0.53-3.849-0.593-5.665-0.201 0.699-1.157 1.775-2.143 3.175-2.887 3.525-1.875 8.253-1.857 11.924 1e-3 7.559 14.212 23.149 26.838 35.412 28.829 0.07 1.165 0.266 2.339 0.58 3.502-0.609 0.146-1.42 0.279-2.392 0.344-2.489 0.183-5.97-0.125-9.272-1.131-1.646-0.508-3.254-1.171-4.651-1.997-0.708-0.398-1.345-0.858-1.939-1.309-0.578-0.471-1.103-0.946-1.545-1.43-0.444-0.478-0.812-0.955-1.115-1.396-0.145-0.226-0.28-0.436-0.406-0.632-0.109-0.204-0.21-0.394-0.299-0.563-0.195-0.337-0.282-0.63-0.374-0.818-0.081-0.191-0.125-0.294-0.125-0.294s0.032 0.107 0.092 0.306c0.068 0.195 0.125 0.502 0.281 0.861 0.072 0.182 0.152 0.384 0.24 0.604 0.104 0.213 0.217 0.442 0.339 0.687 0.257 0.485 0.58 1.017 0.983 1.564 0.4 0.55 0.888 1.104 1.436 1.664 0.565 0.539 1.181 1.096 1.874 1.597 1.369 1.033 2.979 1.92 4.658 2.652 3.367 1.454 7.012 2.211 9.845 2.327 1.356 0.061 2.525-0.018 3.401-0.167 0.276 0.605 0.579 1.204 0.923 1.791l-0.42 1.222c-20.361 1.017-23.454-4.635-31.638-19.602-0.76-1.391-1.562-2.854-2.42-4.393-2.418-4.334-7.078-9.535-12.902-11.131m22.28 57.86c-3.115-5.074-6.875-11.202-12.801-13.157 2.006-0.842 4.837-0.961 6.545-0.897 2.753 4.954 7.09 10.222 13.573 11.986 5.693 1.549 11.894 0.054 18.439-4.43 0.734 0.645 1.525 1.353 2.343 2.1-0.176 0.282-0.375 0.556-0.605 0.913-0.267 0.392-0.649 0.831-1.024 1.317-0.433 0.439-0.852 0.976-1.391 1.443-0.264 0.243-0.534 0.493-0.81 0.747-0.296 0.233-0.599 0.47-0.905 0.711-0.301 0.257-0.639 0.463-0.975 0.686-0.342 0.212-0.668 0.47-1.039 0.646-0.364 0.195-0.731 0.39-1.099 0.587-0.379 0.171-0.77 0.32-1.158 0.484-0.384 0.179-0.789 0.284-1.191 0.399-0.404 0.102-0.8 0.268-1.213 0.31-0.41 0.066-0.817 0.133-1.219 0.199-0.405 0.053-0.809 0.037-1.207 0.06-0.801 0.078-1.562-0.085-2.301-0.136-0.727-0.112-1.399-0.322-2.036-0.462-0.609-0.222-1.161-0.454-1.659-0.645-0.507-0.175-0.882-0.462-1.227-0.63-0.674-0.374-1.06-0.588-1.06-0.588s0.359 0.256 0.987 0.706c0.325 0.207 0.677 0.54 1.165 0.774 0.479 0.25 1.016 0.551 1.619 0.849 0.632 0.217 1.309 0.514 2.056 0.72 0.761 0.142 1.56 0.404 2.417 0.421 0.427 0.025 0.864 0.088 1.306 0.081 0.442-0.021 0.889-0.043 1.341-0.065 0.459 2e-3 0.899-0.122 1.354-0.185 0.455-0.075 0.915-0.143 1.353-0.288 0.442-0.129 0.891-0.246 1.331-0.387 0.427-0.169 0.854-0.339 1.278-0.506 0.435-0.153 0.819-0.386 1.223-0.579 0.4-0.203 0.801-0.394 1.163-0.635 0.37-0.23 0.735-0.454 1.092-0.675 0.339-0.247 0.67-0.49 0.993-0.726 0.661-0.458 1.199-0.995 1.744-1.442 0.496-0.505 0.964-0.934 1.357-1.387 0.192-0.227 0.381-0.448 0.551-0.649 0.946 0.906 1.889 1.84 2.784 2.772-4.875 6.622-10.56 10.227-16.506 10.429-6.154 0.206-11.099-3.175-13.457-6.136-0.983-1.234-2.027-2.934-3.131-4.735m110.12 15.266c-3.77 0.456-6.629 1.981-9.415 3.464-2.968 1.583-5.772 3.076-9.807 3.53-5.31 0.593-11.527-1.49-16.215-5.445-3.307-2.791-7.267-7.643-8.398-15.305 2.316 0.807 4.218 1.099 5.271 1.204 5.864 8.931 15.257 13.135 25.306 11.244 1.755-0.33 3.438-0.831 5.026-1.471 0.986-0.057 5.025-0.098 8.232 2.779m-48.852-77.118-6.53 2.779-5.926-2.28c-0.703-2.24-1.859-4.285-3.461-6.107 4.805-2.204 8.561-5.313 10.645-7.268 2.747 2.452 6.826 5.623 8.987 7.277-1.394 1.534-3.192 3.852-3.715 5.599m18.861 36.703 0.112 0.53c0.016 0.082 1.595 7.632 1.993 11.171-2.387 2.076-9.558 8.596-11.114 12.894-2.749-0.412-9.238-2.064-14.437-8.631l-1.393-1.759-1.204 1.892c-3.029 4.763-8.506 8.352-15.876 10.414-4.305-5.189-11.408-11.228-13.88-13.277l4.278-12.444-0.416-0.649c-2.911-4.552-3.31-9.718-1.065-13.817 1.924-3.517 5.487-5.533 9.773-5.533l1.716 0.02 0.064-1.549c0.119-2.898 0.97-10.715 3.438-14.624l11.054 4.255v6.718c-1.902 1.527-5.339 4.23-7.687 5.746h6.092l3.19-2.691 2.592 2.691h4.987l-5.983-5.292v-7.213l9.344-3.977c2.421 3.894 3.133 11.526 3.2 14.359l0.037 1.577 1.759-0.02c4.19 0 7.596 1.748 9.591 4.92 2.379 3.782 2.405 8.942 0.07 13.801zm38.417 11.996c-0.397 0.152-0.803 0.343-1.213 0.588-2.981 1.768-5.007 5.468-6.022 10.995-1.055 5.738-7.379 10.95-15.039 12.392-4.265 0.803-14.909 1.392-22.26-10.166 0.165-0.811 1.278-2.367 2.75-4.11 0.037 0.055 0.068 0.1 0.109 0.159 0.238 0.333 0.623 0.777 1.016 1.253 0.414 0.455 0.887 0.905 1.416 1.401 0.566 0.449 1.137 0.979 1.83 1.415 0.343 0.224 0.675 0.481 1.049 0.688 0.371 0.209 0.752 0.421 1.139 0.638 0.381 0.221 0.807 0.378 1.216 0.571 0.41 0.193 0.832 0.372 1.275 0.509 0.44 0.142 0.872 0.312 1.322 0.433l1.362 0.322c0.45 0.122 0.923 0.139 1.379 0.212 0.459 0.063 0.915 0.125 1.374 0.116 0.456 9e-3 0.907 0.018 1.354 0.026 0.443-0.041 0.882-0.081 1.313-0.121 0.214-0.021 0.427-0.041 0.637-0.062 0.207-0.043 0.412-0.087 0.614-0.13 0.404-0.088 0.799-0.175 1.183-0.258 0.754-0.215 1.443-0.492 2.085-0.707 0.616-0.287 1.169-0.574 1.66-0.816 0.501-0.221 0.871-0.542 1.208-0.74 0.653-0.429 1.026-0.675 1.026-0.675s-0.398 0.203-1.094 0.557c-0.357 0.158-0.748 0.43-1.266 0.593-0.51 0.182-1.077 0.4-1.7 0.611-0.648 0.138-1.335 0.33-2.073 0.452-0.372 0.039-0.755 0.079-1.146 0.119-0.195 0.019-0.391 0.039-0.589 0.058-0.2-4e-3 -0.402-7e-3 -0.606-0.01-0.404-8e-3 -0.815-0.014-1.231-0.022-0.412-0.055-0.828-0.111-1.249-0.166-0.42-0.036-0.834-0.144-1.247-0.248-0.412-0.117-0.835-0.173-1.234-0.334l-1.202-0.43c-0.394-0.154-0.768-0.354-1.148-0.525-0.383-0.165-0.743-0.369-1.09-0.585-0.348-0.216-0.709-0.392-1.027-0.629-0.321-0.23-0.637-0.456-0.944-0.678-0.31-0.218-0.574-0.48-0.851-0.709-0.565-0.444-1.002-0.965-1.443-1.396-0.395-0.468-0.768-0.912-1.044-1.294-0.25-0.399-0.472-0.685-0.655-1.008-0.304-0.574-0.49-0.928-0.548-1.037 0.736-0.789 1.485-1.563 2.201-2.276 6.897 4.561 13.36 6.059 19.215 4.434 4.916-1.363 9.09-4.896 12.211-10.276 1.55-7e-3 4.021 0.166 5.977 0.866m-11.265-5.279s-0.222 0.38-0.629 1.022c-0.24 0.297-0.473 0.698-0.844 1.076-0.34 0.401-0.771 0.809-1.261 1.222-0.504 0.397-1.071 0.794-1.717 1.13-0.642 0.341-1.351 0.636-2.107 0.858-0.756 0.229-1.556 0.39-2.377 0.478-0.819 0.107-1.663 0.102-2.498 0.087-3.353-0.145-6.628-1.233-8.675-2.46-0.518-0.299-0.949-0.609-1.298-0.892-0.337-0.288-0.607-0.549-0.752-0.757-0.041-0.051-0.079-0.099-0.114-0.144-0.013-0.028-0.016-0.046-0.027-0.063-8e-3 -0.017-0.019-0.024-0.032-0.045-0.104-0.626-0.216-1.268-0.331-1.909 18.197-0.284 22.938-6.69 30.543-20.286l0.338-0.082c2.985-0.74 5.349-1.237 7.256-0.617-0.341 0.059-0.676 0.149-1.005 0.27-4.249 1.565-6.16 7.835-8.007 13.899-0.836 2.742-1.625 5.332-2.581 7.412-2.813 6.132-6.846 10.08-11.658 11.415-4.759 1.322-10.132 0.104-15.985-3.613 0.526-0.464 0.966-0.824 1.268-1.027l0.763-0.513-0.059-0.872c0.155 0.074 0.3 0.154 0.462 0.224 2.609 1.169 6.271 1.907 9.923 1.655 0.91-0.085 1.816-0.187 2.69-0.404 0.875-0.196 1.718-0.469 2.5-0.808 0.786-0.33 1.508-0.733 2.148-1.174 0.643-0.435 1.193-0.921 1.669-1.395 0.461-0.489 0.855-0.957 1.155-1.407 0.332-0.428 0.524-0.865 0.73-1.187 0.337-0.694 0.512-1.093 0.512-1.093m-36.734 46.545c-11.36-1.508-13.314-16.792-13.462-32.17 1.94 1.804 3.934 3.132 5.817 4.108 0.671 7.662 4.095 14.454 9.723 19.202 3.351 2.828 7.295 4.789 11.296 5.708-1.699 1.75-5.544 4.19-13.374 3.152m-25.247 2.776c-1.14-0.237-1.985-0.505-2.609-0.767 6.125-3.482 10.132-10.532 12.322-18.247 1.231 7.118 3.813 13.9 9.201 17.295-4.116 2.311-12.936 2.95-18.914 1.719m-22.674-5.42c4.955-0.759 10.041-2.943 14.027-6.221 3.819-3.142 8.325-8.626 8.756-17.141 3.359-1.566 6.205-3.519 8.466-5.817 0.206 13.163-5.434 31.959-18.832 32.892-7.165 0.501-10.745-1.877-12.417-3.713m-7.036-3.19c-2.723-0.535-5.22-1.989-7.864-3.527-3.219-1.874-6.517-3.793-10.348-4.079 3.282-2.298 7.142-3.194 8.52-3.456 2.936 1.745 6.634 2.986 10.795 2.843 4.811-0.163 11.828-2.292 18.591-11.215 0.382 0.444 0.745 0.883 1.081 1.31l0.642 0.821 1.009-0.258c1.42-0.363 2.779-0.78 4.079-1.246-0.798 6.502-4.392 10.78-7.469 13.312-5.422 4.46-13.073 6.669-19.036 5.495m-35.615-59.492c1.15-1.387 2.649-2.39 4.392-2.914 2.308-0.691 4.773-0.392 6.671 0.781 7.696 14.032 11.994 20.607 32.523 19.852l-0.987 2.876c-5e-3 7e-3 -0.01 0.014-0.013 0.02-0.225 0.392-0.851 1.048-1.817 1.669-1.906 1.278-5.054 2.449-8.296 2.659-0.809 0.038-1.625 0.045-2.419-0.042-0.796-0.081-1.574-0.225-2.303-0.451-0.737-0.205-1.412-0.515-2.033-0.846-0.315-0.16-0.589-0.368-0.876-0.541-0.27-0.195-0.516-0.403-0.764-0.593-0.459-0.419-0.865-0.827-1.18-1.23-0.342-0.382-0.558-0.778-0.78-1.076-0.363-0.647-0.57-1.016-0.57-1.016s0.162 0.392 0.45 1.083c0.186 0.322 0.36 0.751 0.661 1.181 0.275 0.45 0.642 0.92 1.071 1.414 0.233 0.229 0.468 0.48 0.729 0.719 0.278 0.218 0.549 0.473 0.862 0.684 0.62 0.431 1.313 0.852 2.082 1.17 0.761 0.336 1.588 0.593 2.443 0.783 0.854 0.197 1.74 0.294 2.629 0.356 3.094 0.155 6.175-0.451 8.575-1.437l-0.435 1.265 0.869 0.703c0.026 0.02 0.71 0.575 1.788 1.486-5.469 3.567-10.545 4.751-15.096 3.512-6.563-1.787-10.668-8.103-12.955-13.087-0.691-1.503-1.341-3.149-1.969-4.74-2.657-6.727-5.625-14.239-13.169-14.24zm29.552-108.91c7.428 1.192 9.671 5.879 9.697 5.935l0.332-0.154c-2.066 8.288-6.149 18.827-12.295 31.756-5.931 12.477-6.84 24.69-2.703 36.296 4.708 13.211 15.118 22.7 23.613 27.496-1.317 0.977-2.455 2.196-3.369 3.639-0.186-0.06-0.379-0.124-0.581-0.2-0.552-0.184-1.235-0.459-2.024-0.781-0.779-0.338-1.651-0.743-2.589-1.222-0.932-0.491-1.934-1.045-2.966-1.688-1.032-0.638-2.103-1.349-3.176-2.137-1.077-0.784-2.164-1.633-3.228-2.548-1.076-0.901-2.113-1.882-3.135-2.881-2.021-2.02-3.897-4.196-5.447-6.39-0.783-1.093-1.484-2.188-2.091-3.261-0.625-1.064-1.119-2.122-1.561-3.104-0.413-0.993-0.754-1.923-0.989-2.769-0.245-0.841-0.397-1.594-0.495-2.217-0.096-0.624-0.146-1.121-0.152-1.459-0.02-0.339-0.03-0.52-0.03-0.52s-3e-3 0.181-6e-3 0.52c-0.017 0.34-1e-3 0.839 0.051 1.475 0.057 0.634 0.157 1.404 0.346 2.273 0.179 0.872 0.459 1.838 0.811 2.878 0.379 1.027 0.808 2.14 1.37 3.267 0.544 1.137 1.181 2.302 1.903 3.473 1.43 2.349 3.194 4.707 5.126 6.925 0.978 1.098 1.975 2.181 3.021 3.188 1.035 1.018 2.097 1.976 3.16 2.866 1.059 0.895 2.126 1.714 3.162 2.46 1.035 0.747 2.052 1.407 3.006 1.995 0.961 0.579 1.865 1.076 2.679 1.497 0.822 0.407 1.545 0.756 2.18 1.019 0.104 0.045 0.195 0.083 0.288 0.124-0.354 0.978-0.605 1.993-0.751 3.031-10.735-1.967-26.216-13.423-33.571-28.78-3.96-8.268-6.841-20.611 1.926-32.46 21.938-29.651 24.33-42.099 18.488-49.542m13.468-12.935c-0.732-1.774-1.765-3.264-3.087-4.461 6.672 0.319 10.788 5.662 10.837 5.727l0.149-0.113c0.607 5.348 0.337 11.4-1.21 17.928-1.854 7.818-3.811 14.717-5.537 20.805-7.685 27.103-11.569 40.876 12.854 63.012-0.501 1.918-0.841 3.845-1.067 5.504-0.449-0.233-0.937-0.507-1.51-0.81-0.697-0.394-1.484-0.896-2.337-1.427-0.818-0.591-1.755-1.168-2.654-1.905-0.458-0.358-0.937-0.717-1.411-1.103-0.462-0.402-0.934-0.81-1.415-1.226-0.492-0.405-0.946-0.867-1.419-1.32-0.463-0.464-0.97-0.899-1.411-1.402-0.456-0.492-0.915-0.988-1.375-1.486-0.456-0.502-0.869-1.044-1.308-1.566l-0.65-0.79-0.6-0.825c-0.397-0.553-0.793-1.103-1.184-1.65-0.692-1.148-1.466-2.236-2.024-3.392-0.3-0.57-0.594-1.128-0.883-1.676-0.245-0.569-0.485-1.124-0.719-1.663-0.511-1.071-0.806-2.149-1.151-3.123-0.082-0.245-0.163-0.486-0.242-0.72-0.059-0.24-0.115-0.475-0.171-0.703-0.111-0.458-0.214-0.893-0.313-1.302-0.09-0.409-0.207-0.789-0.258-1.15-0.052-0.361-0.099-0.692-0.141-0.992-0.17-1.201-0.268-1.886-0.268-1.886s0.048 0.692 0.131 1.903c0.022 0.304 0.045 0.639 0.07 1.006 0.026 0.366 0.116 0.754 0.177 1.173 0.07 0.419 0.143 0.865 0.221 1.336 0.039 0.235 0.08 0.476 0.121 0.724 0.063 0.242 0.128 0.49 0.193 0.743 0.276 1.008 0.5 2.13 0.938 3.251 0.199 0.569 0.405 1.154 0.614 1.751 0.252 0.579 0.512 1.171 0.775 1.775 0.49 1.226 1.196 2.391 1.826 3.629 0.362 0.59 0.728 1.184 1.094 1.782l0.558 0.894 0.61 0.863c0.413 0.571 0.802 1.162 1.235 1.716 0.44 0.548 0.877 1.095 1.311 1.637 0.421 0.557 0.911 1.043 1.357 1.559 0.458 0.507 0.898 1.021 1.377 1.478 0.47 0.471 0.933 0.933 1.385 1.385 0.465 0.44 0.938 0.851 1.39 1.262 0.89 0.838 1.828 1.518 2.652 2.204 0.867 0.635 1.65 1.216 2.388 1.708 0.754 0.472 1.424 0.915 1.961 1.225 0.197 0.107 0.372 0.204 0.536 0.295-1.363 0.122-2.658 0.415-3.867 0.862-8.238-4.095-19.221-13.396-23.98-26.748-3.842-10.781-2.974-22.171 2.579-33.856 12.506-26.312 16.591-42.786 12.853-51.842m13.079-13.126c6.025 6.061 9.445 16.036 9.381 27.367h1e-3c-0.421 3.961-0.976 7.768-1.623 11.302-5.894 32.189-6.158 46.698 4.426 60.818-1.83 1.185-3.946 2.326-6.274 3.183l-1.56 0.575c-0.696-0.821-1.401-1.729-2.108-2.714-0.823-1.134-1.603-2.392-2.377-3.713-1.508-2.663-2.854-5.671-3.754-8.828-0.47-1.572-0.807-3.184-1.056-4.784-0.103-0.802-0.233-1.598-0.273-2.391-0.032-0.396-0.062-0.791-0.092-1.183-8e-3 -0.392-0.016-0.782-0.022-1.17-0.037-1.546 0.058-3.046 0.214-4.46 0.164-1.414 0.383-2.75 0.677-3.961 0.24-1.227 0.621-2.311 0.888-3.291 0.348-0.956 0.629-1.798 0.9-2.477 0.576-1.347 0.905-2.117 0.905-2.117s-0.375 0.75-1.03 2.062c-0.312 0.663-0.644 1.492-1.052 2.431-0.328 0.971-0.776 2.043-1.094 3.267-0.37 1.209-0.672 2.55-0.926 3.98-0.246 1.433-0.434 2.961-0.493 4.552-0.015 0.398-0.031 0.801-0.047 1.204 6e-3 0.405 0.014 0.813 0.021 1.222-6e-3 0.823 0.078 1.65 0.134 2.488 0.159 1.669 0.411 3.362 0.802 5.025 0.739 3.34 1.955 6.566 3.372 9.453 0.726 1.434 1.468 2.806 2.266 4.052 0.788 1.251 1.584 2.404 2.379 3.43 0.78 1.026 1.549 1.93 2.27 2.709l-0.584 0.681c-0.917 1.071-1.659 2.458-2.265 3.981-21.796-20.226-18.298-32.592-10.863-58.81 1.735-6.119 3.701-13.055 5.571-20.939 3.962-16.709-0.025-30.679-6.107-38.365 3.448 0.82 6.64 2.653 9.393 5.421m10.491-14.228c10.334 15.762 20.056 49.804 21.174 77.026 0.673 16.398-1.752 28.266-7.018 34.498-1.394-1.148-2.704-2.274-3.651-3.185l-0.142-0.138c-0.061-1.327-0.166-3.624-0.298-6.521-0.096-2.336-0.213-5.061-0.303-7.981-0.109-2.92-0.2-6.034-0.263-9.148-0.032-1.558-0.09-3.117-0.098-4.651-0.014-1.533-0.029-3.042-0.042-4.502-0.012-1.46-0.039-2.875-4e-3 -4.21 0.02-1.339 0.039-2.605 0.056-3.773 0.017-1.17 0.02-2.241 0.1-3.186 0.059-0.949 0.11-1.774 0.153-2.454 0.085-1.364 0.134-2.142 0.134-2.142s-0.099 0.773-0.27 2.128c-0.087 0.677-0.191 1.5-0.31 2.444-0.141 0.944-0.213 2.015-0.305 3.181-0.091 1.168-0.192 2.433-0.297 3.771-0.121 1.34-0.185 2.752-0.266 4.215-0.08 1.461-0.164 2.972-0.247 4.508-0.089 1.535-0.131 3.095-0.2 4.655-0.135 3.121-0.244 6.243-0.323 9.17-0.096 2.927-0.154 5.659-0.208 8.001-0.074 4.101-0.127 7.004-0.139 7.667-0.754 0.709-1.74 1.575-2.933 2.497-10.007-13.29-9.705-26.658-3.893-58.397 1.448-7.908 5.197-32.827-0.407-53.473m52.142 82.188c4.698 8.474 5.586 17.417 2.641 26.582-4.843 15.063-18.593 26.361-26.98 30.51-0.758-0.17-1.533-0.304-2.345-0.365-0.031-0.484-0.079-1.074-0.143-1.727 0.198-0.1 0.422-0.213 0.672-0.34 0.528-0.275 1.199-0.701 1.946-1.143 0.739-0.46 1.502-1.021 2.358-1.624 0.803-0.664 1.725-1.316 2.584-2.138 0.437-0.401 0.9-0.798 1.345-1.233 0.435-0.443 0.878-0.896 1.33-1.356 0.464-0.449 0.87-0.964 1.311-1.458 0.432-0.501 0.884-0.995 1.283-1.54 0.411-0.534 0.825-1.071 1.24-1.611 0.383-0.563 0.766-1.13 1.15-1.695 0.396-0.555 0.738-1.147 1.081-1.734 0.335-0.589 0.707-1.153 1.004-1.755 0.604-1.198 1.223-2.359 1.686-3.548 0.238-0.59 0.512-1.152 0.707-1.734 0.197-0.577 0.391-1.143 0.58-1.694 0.093-0.275 0.186-0.546 0.277-0.813 0.072-0.273 0.142-0.542 0.212-0.807 0.139-0.528 0.272-1.038 0.401-1.528 0.267-0.976 0.372-1.904 0.538-2.707 0.171-0.801 0.222-1.517 0.282-2.101 0.119-1.168 0.186-1.836 0.186-1.836s-0.117 0.661-0.321 1.815c-0.104 0.578-0.206 1.281-0.435 2.064-0.225 0.784-0.394 1.688-0.73 2.631-0.162 0.472-0.331 0.966-0.507 1.474-0.087 0.254-0.176 0.513-0.266 0.775-0.109 0.256-0.219 0.515-0.332 0.779-0.224 0.524-0.455 1.064-0.691 1.614-0.231 0.551-0.542 1.082-0.816 1.639-0.535 1.122-1.223 2.208-1.892 3.323-0.329 0.56-0.733 1.08-1.099 1.625-0.372 0.542-0.743 1.087-1.165 1.593-0.409 0.517-0.818 1.032-1.225 1.545-0.437 0.488-0.872 0.975-1.304 1.457-0.417 0.492-0.887 0.931-1.335 1.379-0.455 0.437-0.875 0.899-1.349 1.292-0.459 0.404-0.912 0.802-1.354 1.19-0.451 0.379-0.916 0.72-1.354 1.067-0.862 0.714-1.773 1.255-2.561 1.818-0.829 0.491-1.591 0.972-2.268 1.324-0.607 0.297-1.105 0.569-1.579 0.787-0.243-1.518-0.578-3.152-1.042-4.74 23.958-23.413 19.528-38.862 11.536-66.587-1.396-4.845-2.98-10.338-4.514-16.255-1.564-6.032-1.922-11.5-1.46-16.331 1.412-1.187 6.997-5.572 12.382-5.477-1.694 1.38-2.976 3.211-3.829 5.477-3.787 10.056 1.376 29.052 14.164 52.117m16.625 7.66c9.034 11.867 6.166 24.483 2.169 32.975-6.624 14.075-21.167 26.411-32.471 27.824-0.187-1.065-0.481-2.097-0.878-3.082 0.488-0.197 1.005-0.417 1.587-0.674 0.831-0.389 1.755-0.848 2.739-1.385 0.978-0.548 2.02-1.165 3.086-1.868 1.067-0.702 2.167-1.476 3.262-2.325 1.099-0.846 2.201-1.759 3.276-2.734 1.086-0.962 2.129-2.004 3.152-3.059 2.023-2.134 3.884-4.416 5.409-6.706 0.771-1.138 1.457-2.278 2.047-3.39 0.608-1.102 1.084-2.196 1.505-3.207 0.394-1.025 0.714-1.979 0.929-2.843 0.226-0.859 0.358-1.625 0.441-2.256 0.078-0.633 0.115-1.131 0.113-1.471 0.01-0.339 0.016-0.521 0.016-0.521s-0.018 0.182-0.052 0.52c-0.022 0.337-0.092 0.831-0.213 1.451-0.124 0.617-0.307 1.364-0.587 2.195-0.27 0.833-0.65 1.749-1.104 2.725-0.482 0.963-1.019 2-1.688 3.036-0.652 1.047-1.398 2.112-2.225 3.171-1.641 2.127-3.605 4.223-5.709 6.157-1.062 0.956-2.139 1.893-3.251 2.749-1.103 0.869-2.223 1.674-3.331 2.411-1.106 0.741-2.206 1.406-3.264 2.004-1.057 0.598-2.081 1.11-3.033 1.561-0.957 0.441-1.846 0.807-2.638 1.114-0.737 0.266-1.379 0.492-1.914 0.652-1.166-1.715-2.638-3.1-4.377-4.096 10.262-5.938 21.795-17.773 26.057-31.03 3.227-10.037 2.255-19.83-2.888-29.106-7.402-13.352-12.227-25.422-14.103-34.868 0.763-1.213 3.351-4.51 9.431-5.483-5.982 7.55-3.802 20.247 18.507 49.559m20.854 34.466c-3.029-2.512-8.059-3.798-13.59-3.31 4.593-12.172 3.159-24.049-4.09-33.572-28.558-37.523-20.701-43.52-16.007-47.102l5.43-4.143-6.828-0.152c-6.712-0.146-11.042 1.901-13.707 3.974-0.249-3.452 0.047-6.318 0.882-8.533 0.982-2.609 2.685-4.317 5.203-5.22l5.299-1.901-5.045-2.496c-1.685-0.836-3.536-1.257-5.503-1.257-3.811 0-7.491 1.578-10.298 3.23 1.608-5.795 4.646-10.838 8.498-14.028l5.112-4.237h-6.639c-11.199 0-19.407 7.067-22.847 19.509-5.442-16.777-12.056-29.284-18.312-34.545l-7.907-6.651 4.179 9.45c3.176 7.185 5.031 16.748 5.425 27.859-1.712-3.825-3.933-7.152-6.54-9.773-4.611-4.637-10.295-7.089-16.44-7.089h-6.639l5.113 4.236c3.363 2.787 6.141 7.477 7.782 13.07-2.333-1.446-5.51-2.762-9.349-2.762-1.624 0-3.285 0.237-4.934 0.701l-7.201 2.032 7.043 2.525c2.428 0.87 4.073 2.423 5.033 4.747 1.168 2.829 1.349 6.818 0.541 11.871-2.689-2.434-7.209-4.877-14.592-4.711l-6.827 0.151 5.429 4.143c4.503 3.437 12.041 9.191-16.027 47.128-8.838 11.945-7.181 24.229-3.904 32.854-0.925-0.144-1.862-0.218-2.801-0.218-2.806 0-5.494 0.64-7.774 1.851-3.666 1.95-5.865 5.1-6.189 8.875l-0.396 4.59 3.983-2.317c1.789-1.04 3.782-1.272 5.911-0.691 3.817 1.047 7.928 4.669 10.472 9.228 0.055 0.1 0.111 0.199 0.165 0.297-1.379-0.048-2.741 0.14-4.08 0.543-3.824 1.149-6.923 4.01-8.505 7.851l-1.824 4.431 4.637-1.203c0.868-0.225 1.681-0.339 2.415-0.339 4.609 1e-3 6.783 4.632 9.574 11.699 0.45 1.136 0.924 2.326 1.43 3.51-3.553 0.257-7.674 1.339-9.377 4.743l-1.652 3.306 3.692 0.155c5.849 0.248 9.641 6.427 12.986 11.88 1.172 1.908 2.277 3.708 3.411 5.133 0.319 0.4 0.667 0.797 1.043 1.187-3.299 1.157-7.338 3.242-10.034 6.929l-4.19 5.729 6.803-2.023c0.914-0.27 1.803-0.403 2.719-0.403 3.256 0 6.226 1.729 9.37 3.558 2.814 1.64 5.722 3.331 9.103 3.996 1.145 0.225 2.367 0.349 3.637 0.371 1.48 2.282 5.525 6.674 14.685 6.674 0.705 0 1.438-0.026 2.178-0.078 1.224-0.085 2.451-0.298 3.655-0.633 1.23 1.003 3.083 1.764 5.519 2.268 2.188 0.451 4.777 0.689 7.491 0.689 6.845 0 12.671-1.451 15.737-3.896 0.77 0.219 1.526 0.377 2.3 0.478 1.42 0.19 2.802 0.286 4.106 0.286 8.434 0 12.343-3.943 13.818-6.028 1.152 0.057 2.302 0.023 3.398-0.101 4.79-0.538 8.214-2.363 11.234-3.972 3.391-1.807 6.263-3.336 10.71-3.112l4.564 0.232-2.407-3.884c-1.703-2.745-4.054-4.713-7.005-5.867 3.685-2.906 6.078-6.579 6.793-10.47 0.786-4.282 2.216-7.148 4.134-8.286 1.383-0.821 2.56-0.467 2.566-0.465l5.423 1.786-2.569-5.14c-1.704-3.407-5.866-4.584-9.439-4.932 0.834-2.08 1.559-4.46 2.21-6.595 1.417-4.651 3.181-10.439 5.57-11.319 0.832-0.307 1.937-1e-3 3.35 0.905l7.091 4.538-3.642-7.589c-1.977-4.116-4.98-6.118-9.182-6.118-0.631 0-1.287 0.044-1.999 0.134 0.157-0.281 0.316-0.566 0.476-0.855 2.673-4.789 10.169-10.251 14.071-10.251l0.151 4e-3c0.906 0.032 1.081 0.407 1.197 0.654l3.652 7.827 0.896-8.591c0.28-2.688-0.758-5.094-3.004-6.959m-74.078 38.358c-0.016-0.168 0.014-0.339 0.07-0.511l-0.01 6e-3s-2.072-9.604-0.06-19.044c0.816 0.931 0.55 14.177 4.139 16.661l-0.162 0.095c1.433-0.201 3.161-0.095 5.037 0.542 3.376 1.144 5.854 4.974 9.019 5.702-9.174 3.19-17.72-0.254-18.033-3.451m-16.628-0.218s2.012-9.891 0-19.331c-0.817 0.931-0.551 14.177-4.141 16.661l0.145 0.094c-1.429-0.199-3.151-0.09-5.019 0.543-3.376 1.144-5.855 4.974-9.018 5.702 9.173 3.19 17.719-0.254 18.033-3.451 7e-3 -0.074-4e-3 -0.15-0.01-0.226z" fill="#888" fill-opacity=".08"/></g></g></g></svg>
