<?xml version="1.0" encoding="UTF-8" standalone="no"?>
<!-- Created with Inkscape (http://www.inkscape.org/) -->

<svg
   width="855.71863"
   height="447.36148"
   viewBox="0 0 171.14373 89.472296"
   version="1.1"
   id="svg5"
   inkscape:version="1.2.1 (9c6d41e410, 2022-07-14)"
   xml:space="preserve"
   sodipodi:docname="mountainsAlpha.svg"
   xmlns:inkscape="http://www.inkscape.org/namespaces/inkscape"
   xmlns:sodipodi="http://sodipodi.sourceforge.net/DTD/sodipodi-0.dtd"
   xmlns="http://www.w3.org/2000/svg"
   xmlns:svg="http://www.w3.org/2000/svg"><sodipodi:namedview
     id="namedview7"
     pagecolor="#505050"
     bordercolor="#eeeeee"
     borderopacity="1"
     inkscape:showpageshadow="0"
     inkscape:pageopacity="0"
     inkscape:pagecheckerboard="true"
     inkscape:deskcolor="#505050"
     inkscape:document-units="px"
     showgrid="false"
     inkscape:zoom="1.0794271"
     inkscape:cx="364.54524"
     inkscape:cy="348.33293"
     inkscape:window-width="1920"
     inkscape:window-height="1009"
     inkscape:window-x="-8"
     inkscape:window-y="-8"
     inkscape:window-maximized="1"
     inkscape:current-layer="g2674" /><defs
     id="defs2"><clipPath
       clipPathUnits="userSpaceOnUse"
       id="clipPath2682"><path
         d="M 0,660 H 660 V 0 H 0 Z"
         id="path2680"
         inkscape:connector-curvature="0" /></clipPath></defs><g
     inkscape:label="Ebene 1"
     inkscape:groupmode="layer"
     id="layer1"
     transform="translate(-22.448401,-7.27491)"><g
       id="g2674"
       inkscape:label="mountain-logo-silhouette-freesvg.org"
       transform="matrix(0.26666666,0,0,-0.26666666,19.797734,140.87784)"><path
         d="m 458.979,305.178 -68.153,21.462 -11.705,29.274 -2.068,-15.153 -27.259,17.411 10.629,12.242 -15.857,39.502 61.589,-47.979 3.063,-24.555 z m -337.051,32.294 -0.96,-0.959 -2.198,1.224 z m 357.3,-85.165 c -32.883,2.631 -66.411,12.833 -101.275,32.444 -32.227,18.129 -66.468,31.143 -101.583,39.042 l 31.099,21.854 -31.882,49.394 21.554,26.042 -13.472,32.331 -61.067,-28.738 61.741,59.047 206.699,-172.434 -2.988,-14.918 9.633,2.516 -10.969,-9.183 -3.22,-16.075 -1.522,-7.603 11.39,3.898 -13.303,-13.445 z m 33.189,2.081 -10.969,6.106 11.99,-1.005 z M 52.748,293.592 C 302.12,355.938 304.836,137.513 495.523,185.186 311.454,99.898 290.789,320.873 52.748,293.592 m 525.481,26.228 -160.75,146.166 -44.903,-40.412 -87.11,75.437 -123.812,-123.813 -0.454,2.266 -12.182,4.686 11.264,-0.616 -3.226,16.619 -8.038,2.941 h 7.449 l -7.449,37.185 -5.792,-28.922 5.792,1.531 -6.283,-3.982 -3.349,-16.718 9.632,2.515 -10.967,-9.182 -3.221,-16.075 -1.523,-7.603 11.391,3.898 -13.303,-13.448 -1.242,-6.199 -0.957,4.779 -2.007,10.017 -12.182,4.687 11.264,-0.617 -3.226,16.619 -8.038,2.941 h 7.448 l -7.448,37.185 -5.793,-28.922 5.793,1.531 -6.284,-3.982 -3.348,-16.718 9.632,2.514 -10.968,-9.18 -3.22,-16.075 -1.523,-7.604 11.391,3.898 -13.304,-13.447 -2.838,-14.168 c -1.591,-0.437 -3.18,-0.891 -4.767,-1.348 l -14.005,7.797 13.279,-1.113 -2.853,14.249 -2.008,10.018 -12.181,4.686 11.263,-0.616 -3.225,16.619 -8.038,2.941 h 7.449 l -7.449,37.184 -5.793,-28.922 5.793,1.532 -6.283,-3.983 -3.349,-16.718 9.632,2.516 -10.968,-9.182 -3.219,-16.075 -1.523,-7.604 11.39,3.899 -13.303,-13.449 -3.479,-17.364 C 36.962,298.871 23.278,292.254 9.94,284.751 72.906,304.54 126.518,316.203 178.472,313.93 l 1.238,6.185 6.652,6.724 -5.696,-1.948 0.762,3.801 1.61,8.037 5.484,4.591 -4.816,-1.257 1.674,8.358 3.142,1.993 -2.896,-0.767 2.896,14.461 3.724,-18.592 h -3.724 l 4.019,-1.471 1.613,-8.309 -5.632,0.307 6.09,-2.342 1.004,-5.009 1.427,-7.125 -6.64,0.557 7.348,-4.091 1.148,-5.733 c 4.97,-0.579 9.933,-1.299 14.896,-2.157 l 13.301,13.444 -11.389,-3.896 1.522,7.603 3.22,16.075 10.968,9.181 -9.633,-2.515 3.349,16.718 6.284,3.982 -5.793,-1.531 5.793,28.922 7.448,-37.185 h -7.448 l 8.038,-2.941 3.225,-16.619 -11.263,0.616 12.181,-4.685 2.006,-10.018 2.855,-14.25 -13.281,1.114 14.697,-8.182 0.983,-4.905 c 31.81,-10.101 64.339,-26.404 99.343,-50.253 90.524,-61.683 233.885,-38.339 301.528,48.557 -28.97,-16.298 -57.488,-29.211 -86.028,-37.48 l -0.496,2.474 -7.349,4.091 6.642,-0.556 -1.429,7.124 -1.003,5.008 -6.09,2.344 5.632,-0.309 -1.614,8.312 -4.018,1.471 h 3.725 l -3.725,18.591 -2.897,-14.462 2.897,0.767 -3.142,-1.99 -1.674,-8.363 4.816,1.259 -5.485,-4.591 -1.609,-8.037 -0.761,-3.8 5.695,1.948 -6.653,-6.724 -1.936,-9.671 h 0.01 c -0.584,-0.123 -1.17,-0.242 -1.754,-0.362 l -0.67,3.353 -11.67,6.499 10.545,-0.884 -2.267,11.314 -1.593,7.956 -9.674,3.721 8.945,-0.489 -2.562,13.199 -6.383,2.336 h 5.914 l -5.914,29.528 -4.6,-22.968 4.6,1.216 -4.991,-3.162 -2.658,-13.276 7.649,1.997 -8.709,-7.291 -2.558,-12.767 -1.208,-6.037 9.046,3.095 -10.566,-10.678 -0.087,-0.428 -2.197,10.976 -2.008,10.018 -12.18,4.686 11.263,-0.616 -3.226,16.618 -8.037,2.941 h 7.448 l -7.448,37.186 -5.793,-28.922 5.793,1.533 -6.285,-3.983 -0.326,-1.624 -53.515,50.665 70.174,-8.401 -65.108,36.82 3.816,-15.94 -35.248,30.758 -17.992,-1.242 -9.849,9.325 57.475,-7.634 -4.49,25.145 z"
         style="fill:#888888;fill-opacity:0.07749078;fill-rule:evenodd;stroke:none"
         id="path2776"
         inkscape:connector-curvature="0" /></g></g></svg>
