<?xml version="1.0" encoding="UTF-8"?>
<svg width="793.89" height="732.95" version="1.1" viewBox="0 0 158.78 146.59" xml:space="preserve" xmlns="http://www.w3.org/2000/svg"><g transform="translate(-24.316 8.8652)"><g transform="matrix(.26667 0 0 -.26667 14.464 153.31)"><path d="m368.72 421.7c-7.752-3.346-20.128-5.51-34.069-5.51-13.944 0-26.318 2.164-34.071 5.51 0.898-8.3 15.807-14.906 34.071-14.906 18.263 0 33.171 6.606 34.069 14.906m19.432-31.581c-12.177-5.253-31.607-8.654-53.501-8.654s-41.326 3.401-53.502 8.654c1.41-13.036 24.824-23.405 53.502-23.405 28.679 0 52.091 10.369 53.501 23.405m19.865-24.265c-1.918 0-3.655-1.749-4.911-4.573 0.121 0.028 0.241 0.042 0.365 0.042 1.924 0 3.483-3.494 3.483-7.808s-1.559-7.812-3.483-7.812c-0.874 0-1.669 0.718-2.283 1.906 0.57-7.295 3.412-12.836 6.829-12.836 3.829 0 6.935 6.954 6.935 15.538 0 8.585-3.106 15.543-6.935 15.543m-30.293-17.818c6.065-11.359 11.014-11.925 15.661-7.242l-8.456-88.647 17.726 79.982c2.215-2.692 4.924-4.278 7.851-4.278 7.487 0 13.557 10.383 13.557 23.193 0 11.916-5.253 21.733-12.013 23.045 6.245 10.617 13.569 18.358 23.341 13.929-27.374 25.878-35.356-45.675-57.667-39.982m-116.44 17.818c-3.828 0-6.931-6.958-6.931-15.543 0-8.584 3.103-15.538 6.931-15.538 3.419 0 6.26 5.541 6.831 12.836-0.613-1.188-1.409-1.906-2.283-1.906-1.923 0-3.483 3.498-3.483 7.812s1.56 7.808 3.483 7.808c0.124 0 0.245-0.014 0.365-0.042-1.256 2.824-2.993 4.573-4.913 4.573m30.297-17.818c-22.313-5.693-30.297 65.86-57.666 39.982 9.768 4.429 17.095-3.312 23.339-13.929-6.761-1.312-12.013-11.129-12.013-23.045 0-12.81 6.071-23.193 13.558-23.193 2.927 0 5.635 1.586 7.849 4.278l17.726-79.982-8.454 88.647c4.644-4.683 9.595-4.117 15.661 7.242m43.073-220.08-4.37-1.604c-5.499-2.021-11.683-1.588-16.801 1.174-5.116 2.761-8.61 7.554-9.488 13.021-1.581 9.839-9.843 17.565-20.37 19.044l2.208-2.586c5.238-6.14 7.501-14.039 6.248-21.801-1.487-9.198 2.6-18.319 10.426-23.804-2.832-1.476-5.591-3.151-8.264-5.012l-4.034-2.817c11.896 0.529 23.804 0.529 35.701 0l8.744-0.387 8.744 0.387c11.896 0.529 23.804 0.529 35.697 0l-4.031 2.817c-2.672 1.861-5.431 3.536-8.263 5.012 7.825 5.485 11.911 14.606 10.424 23.804-1.253 7.762 1.011 15.661 6.247 21.801l2.21 2.586c-10.525-1.479-18.79-9.205-20.371-19.044-0.878-5.467-4.37-10.26-9.49-13.021-5.116-2.762-11.3-3.195-16.8-1.174zm0-37.959c14.768-4.612 30.781-2.475 44.394 6.413 17.928 11.705 28.972 33.338 28.972 56.75v20.573l-37.507-4.952c2.616 10.644 7.578 20.362 14.419 28.247l3.332 3.839c-16.195 0.458-32.161-4.381-45.981-13.931l-7.629-5.275-7.628 5.275c-13.824 9.55-29.789 14.389-45.983 13.931l3.331-3.839c6.841-7.885 11.801-17.603 14.42-28.247l-37.51 4.952v-20.573c0-23.412 11.046-45.045 28.973-56.75 13.615-8.888 29.628-11.025 44.397-6.413m-140.83 324.72-5.662-1.304c-18.207-4.193-40.007-1.373-56.545 7.319-21.901 11.51-50.769 15.245-74.878 9.693 6.725-5.058 13.897-9.887 21.312-14.322l5.425 0.387c19.365 1.374 38.808-1.144 57.185-7.404l-9.357 1.211c-13.424 1.737-26.984 1.219-40.137-1.476 4.003-2.055 8.041-3.971 12.086-5.725 11.396 2.933 23.19 4.101 34.973 3.454l-7.276-2.243c-4.91-1.513-9.425-3.8-13.431-6.699 32.137-10.716 62.498-9.228 76.305 17.109m281.66 0 5.662-1.304c18.208-4.193 40.007-1.373 56.547 7.319 21.899 11.51 50.769 15.245 74.879 9.693-6.727-5.058-13.9-9.887-21.314-14.322l-5.425 0.387c-19.365 1.374-38.81-1.144-57.186-7.404l9.359 1.211c13.422 1.737 26.982 1.219 40.135-1.476-4.002-2.055-8.037-3.971-12.082-5.725-11.398 2.933-23.194 4.101-34.974 3.454l7.274-2.243c4.909-1.513 9.423-3.8 13.431-6.699-32.139-10.716-62.498-9.228-76.306 17.109m-351.62 33.478c24.58-0.456 49.562-4.934 74.027-13.46l6.959-2.426c-4.054 14.485-12.229 27.827-24.032 38.184-8.543 7.495-20.265 10.231-31.244 7.289-10.978-2.942-19.763-11.172-23.414-21.936-0.856-2.529-1.623-5.079-2.296-7.651m2.296-64.868c3.274-9.65 15.007-17.664 22.674-10.962 5.997 5.242 15.033 4.939 20.664-0.691 5.634-5.635 5.936-14.669 0.693-20.666-30.999-35.455-89.504-15.122-98.621 31.084-1.997 10.121-3.557 20.307-4.679 30.528-3.423 2.008-6.814 4.099-10.17 6.278l-19.78 12.844c9.082 3.842 18.422 7.011 27.954 9.51-0.374 12.438-0.104 24.891 0.808 37.307 4.658-9.025 29.458-26.669 48.317-7.98-16.709-8.144-43.435 12.606-45.745 32.003 0.921 6.516 2.019 13.013 3.295 19.483 2.655 13.463 7.817 26.017 14.996 37.155-8.178-28.912 4.29-67.076 41.515-51.017-41.345-1.539-37.231 50.098-24.372 71.467 12.51 11.606 27.847 20.263 44.97 24.85-20.598-11.014-30.742-55.024 7.989-75.355-16.794 12.406-17.539 66.384 12.369 78.749 20.063 1.371 40.01-2.974 57.555-12.339-25.622 7.607-55.409-32.121-32.219-76.504-4.703 35.909 29.381 68.144 57.705 57.534 1.58-1.592 3.117-3.236 4.605-4.938 10.601-12.124 20.002-25.196 28.101-39.029-23.28 16.39-47.723-12.246-46.547-40.496 7.508 28.649 39.387 36.692 56.17 22.432 3.527-7.312 6.708-14.8 9.528-22.436l2.135-8.129c1.434-5.452 0.934-10.985-1.294-16.126l-0.016-0.035c-0.062-0.144-0.124-0.288-0.191-0.431l-3e-3 -7e-3 -0.109-0.235-0.106-0.223-4e-3 -0.011-0.115-0.234-6e-3 -0.011-0.099-0.201-9e-3 -0.022-0.12-0.231-0.12-0.233-0.123-0.232-0.125-0.231-0.129-0.229-0.13-0.23-0.132-0.229v-2e-3l-0.133-0.221-3e-3 -5e-3 -0.137-0.228v-1e-3l-0.14-0.225-0.142-0.226-0.145-0.226-0.147-0.226-0.013-0.019-0.134-0.203-0.154-0.223-0.013-0.02-0.132-0.19-0.201-0.284-0.113-0.158-0.01-0.013-0.16-0.22-0.03-0.04-0.12-0.162-0.012-0.017-0.168-0.218-0.03-0.036-0.137-0.182-0.17-0.217-0.036-0.046-0.125-0.155-0.254-0.31-0.09-0.107-0.265-0.316-0.099-0.117c-0.093-0.106-0.184-0.212-0.279-0.317l-0.106-0.119-0.254-0.282-0.143-0.156-0.293-0.314-0.057-0.061c-0.103-0.109-0.207-0.216-0.313-0.324l-0.097-0.101c-0.116-0.116-0.229-0.231-0.347-0.346l-0.072-0.072-0.34-0.329-0.039-0.039-0.036-0.035c-0.119-0.113-0.241-0.227-0.362-0.339l-0.03-0.03-0.034-0.03c-0.13-0.121-0.262-0.242-0.397-0.362l-7e-3 -7e-3 -0.029-0.026c-0.134-0.117-0.267-0.236-0.402-0.354l-0.016-0.013-0.025-0.023c-0.13-0.113-0.261-0.225-0.393-0.335l-0.036-0.032-0.023-0.019c-0.122-0.103-0.246-0.206-0.372-0.309l-0.112-0.093c-0.143-0.116-0.287-0.23-0.432-0.346l-0.013-0.011c-0.146-0.117-0.295-0.232-0.445-0.346l-0.023-0.019-9e-3 -8e-3c-0.147-0.112-0.293-0.223-0.443-0.335l-0.04-0.029-3e-3 -4e-3 -0.035-0.023c-0.152-0.115-0.307-0.228-0.462-0.34-10.76-7.775-26.148-11.199-41.1-9.149l7.57-3.225c0.193-0.083 0.385-0.162 0.578-0.241l0.027-0.013 0.057-0.023 0.444-0.177 0.109-0.044 0.038-0.015c0.187-0.073 0.376-0.147 0.565-0.22l0.028-8e-3c0.196-0.074 0.392-0.148 0.589-0.219l0.01-4e-3 6e-3 -3e-3c0.2-0.072 0.4-0.143 0.6-0.212l0.017-5e-3 0.063-0.023c0.177-0.061 0.354-0.122 0.532-0.182l0.067-0.021c0.182-0.06 0.362-0.119 0.543-0.177l0.048-0.016 8e-3 -2e-3c0.186-0.059 0.373-0.118 0.562-0.175l0.062-0.021 0.012-2e-3 0.064-0.019 0.474-0.143 0.199-0.056 0.453-0.129 0.186-0.051 0.487-0.132 0.043-0.01 0.075-0.021 0.466-0.12 0.206-0.051 0.429-0.104 0.243-0.057 0.339-0.076 0.324-0.074 0.238-0.051 0.065-0.015 0.41-0.086 4e-3 -1e-3 0.238-0.048 0.479-0.094 0.241-0.045 0.239-0.045 0.241-0.044 0.059-9e-3 0.423-0.075 0.24-0.04 0.028-5e-3 0.456-0.071 0.242-0.038c0.397-0.06 0.796-0.116 1.195-0.168l0.033-4e-3c0.401-0.051 0.801-0.097 1.204-0.141 9.086-0.968 18.519 0.258 26.734 3.685 11.463 4.782 18.977 13.187 20.435 22.549l12.616-2.581 12.616 2.581c1.456-9.362 8.971-17.767 20.433-22.549 8.214-3.427 17.648-4.653 26.734-3.685 0.403 0.044 0.805 0.09 1.207 0.141l0.031 4e-3c0.4 0.052 0.799 0.108 1.195 0.168l0.242 0.038 0.456 0.071 0.028 5e-3 0.242 0.04 0.421 0.075 0.059 9e-3 0.24 0.044 0.48 0.09 0.481 0.094 0.237 0.048 4e-3 1e-3 0.411 0.086 0.061 0.015 0.24 0.051 0.326 0.074 0.335 0.076 0.248 0.057 0.427 0.104 0.205 0.051 0.467 0.12 0.075 0.021 0.044 0.01 0.488 0.132 0.184 0.051 0.451 0.129 0.2 0.056c0.157 0.047 0.317 0.094 0.474 0.143l0.067 0.019 0.01 2e-3 0.061 0.021 0.565 0.175 6e-3 2e-3 0.047 0.016c0.181 0.058 0.363 0.117 0.544 0.177l0.064 0.021c0.179 0.06 0.359 0.121 0.536 0.182l0.063 0.023 0.014 5e-3c0.202 0.069 0.403 0.14 0.602 0.212l5e-3 3e-3 0.011 4e-3c0.197 0.071 0.393 0.145 0.587 0.219l0.029 8e-3c0.19 0.073 0.38 0.147 0.565 0.22l0.039 0.015 0.109 0.044 0.445 0.177 0.056 0.023 0.029 0.013c0.191 0.079 0.384 0.158 0.578 0.241l7.566 3.225c-14.949-2.05-30.338 1.374-41.099 9.149-0.155 0.112-0.307 0.225-0.462 0.34l-0.033 0.023-4e-3 4e-3 -0.041 0.029-0.442 0.335-8e-3 8e-3 -0.025 0.019c-0.148 0.114-0.299 0.229-0.443 0.346l-0.015 0.011c-0.146 0.116-0.289 0.231-0.431 0.346l-0.112 0.093-0.371 0.309-0.026 0.019-0.036 0.032c-0.13 0.11-0.26 0.222-0.392 0.335l-0.024 0.023-0.017 0.013c-0.134 0.118-0.269 0.235-0.401 0.354l-0.029 0.026-7e-3 7e-3c-0.133 0.12-0.266 0.241-0.397 0.362l-0.034 0.03-0.029 0.03c-0.121 0.112-0.244 0.226-0.361 0.339l-0.038 0.035-0.04 0.039-0.339 0.329-0.04 0.039-0.03 0.033-0.347 0.346-0.101 0.101c-0.103 0.108-0.209 0.215-0.312 0.324l-0.056 0.061-0.293 0.314-0.144 0.156-0.254 0.282-0.107 0.119-0.275 0.317-0.101 0.117-0.266 0.316-0.09 0.107-0.253 0.31-0.124 0.155-0.035 0.046-0.173 0.217-0.138 0.182-0.029 0.036-0.165 0.218-0.012 0.017-0.12 0.162-0.032 0.04-0.16 0.22-0.011 0.013-0.113 0.158-0.202 0.284-0.131 0.19-0.011 0.02-0.152 0.223-0.137 0.203-0.012 0.019-0.147 0.226-0.145 0.226-0.143 0.226-0.138 0.225-1e-3 1e-3 -0.141 0.228-1e-3 5e-3 -0.131 0.221v2e-3l-0.133 0.229-0.131 0.23-0.127 0.229-0.126 0.231-0.122 0.232-0.123 0.233-0.117 0.231-0.01 0.022-0.1 0.201-6e-3 0.011-0.114 0.234-4e-3 0.011-0.105 0.223-0.112 0.235-1e-3 7e-3c-0.064 0.143-0.13 0.287-0.191 0.431l-0.015 0.035c-2.231 5.141-2.728 10.675-1.299 16.126l2.138 8.129c2.82 7.636 6.002 15.124 9.53 22.436 16.781 14.26 48.66 6.217 56.167-22.432 1.177 28.25-23.267 56.886-46.544 40.496 8.097 13.833 17.499 26.905 28.097 39.029 1.488 1.702 3.03 3.346 4.609 4.938 28.322 10.61 62.407-21.625 57.705-57.534 23.187 44.383-6.599 84.111-32.222 76.504 17.548 9.365 37.492 13.71 57.558 12.339 29.91-12.365 29.163-66.343 12.367-78.749 38.729 20.331 28.589 64.341 7.991 75.355 17.122-4.587 32.458-13.244 44.968-24.85 12.861-21.369 16.973-73.006-24.37-71.467 37.223-16.059 49.693 22.105 41.513 51.017 7.18-11.138 12.341-23.692 14.998-37.155 1.276-6.47 2.374-12.967 3.294-19.483-2.311-19.397-29.037-40.147-45.743-32.003 18.86-18.689 43.657-1.045 48.316 7.98 0.911-12.416 1.18-24.869 0.808-37.307 9.532-2.499 18.87-5.668 27.954-9.51l-19.781-12.844c-3.355-2.179-6.749-4.27-10.169-6.278-1.123-10.221-2.684-20.407-4.679-30.528-9.118-46.206-67.623-66.539-98.624-31.084-5.244 5.997-4.94 15.031 0.694 20.666 5.633 5.63 14.668 5.933 20.663 0.691 7.667-6.702 19.403 1.312 22.677 10.962 0.49 1.444 0.948 2.897 1.376 4.355-20.793-5.967-42.04-9.035-63.128-9.049v-72.915c0-13.822-6.525-26.595-17.111-33.504-28.757-18.78-46.474-53.481-46.474-91.037v-41.602c0-27.29-12.875-52.513-33.775-66.158-15.013-9.805-32.044-14.965-49.378-14.965-17.336 0-34.365 5.16-49.379 14.965-20.901 13.645-33.776 38.868-33.776 66.158v41.602c0 37.556-17.715 72.257-46.475 91.037-10.586 6.909-17.108 19.682-17.108 33.504v72.915c-21.091 0.014-42.334 3.082-63.132 9.049 0.431-1.46 0.89-2.911 1.38-4.355m338.29 48.982 6.96 2.426c24.467 8.526 49.448 13.004 74.028 13.46-0.674 2.572-1.437 5.122-2.295 7.651-3.653 10.764-12.436 18.994-23.417 21.936-10.978 2.942-22.701 0.206-31.244-7.289-11.801-10.357-19.976-23.699-24.032-38.184" fill="#888" fill-opacity=".075556" fill-rule="evenodd"/></g></g></svg>
