<?xml version="1.0" encoding="UTF-8"?>
<svg width="834" height="453.05" version="1.1" viewBox="0 0 166.8 90.61" xml:space="preserve" xmlns="http://www.w3.org/2000/svg"><g transform="translate(-11.886 -2.3324)"><g transform="matrix(.26667 0 0 -.26667 7.2102 136.19)"><path d="m211.77 423.72c6.526 2.145 16.924 7.032 23.435 4.891 10.139-3.333 21.289-0.345 28.403 7.61l-2.725-10.871c-1.832-7.313-6.554-13.57-13.083-17.34-5.378-3.105-11.603-4.303-17.682-3.474 8.046 2.26 14.979 7.157 19.658 14.18l4.164 6.247c-6.751-3.741-14.865-4.88-23.014-3.23-4.341 0.879-8.701 1.436-13.043 1.665zm-48.81 0-14.471-18.37c-7.25-2.07-15.029-1.11-21.559 2.66-6.529 3.77-11.25 10.027-13.084 17.34l-2.725 10.871c7.114-7.955 18.265-10.943 28.403-7.61 6.51 2.141 16.909-2.746 23.436-4.891m370.48-29.131 12.597-5.359c25.912-11.023 55.196-11.023 81.109 0 1.616 0.688 2.827 2.081 3.28 3.775 0.454 1.697 0.103 3.508-0.951 4.911-4.15 5.514-4.15 13.107 0 18.623l6.841-3.872c4.152-2.348 6.715-6.747 6.715-11.515 0-4.767-2.563-9.167-6.715-11.514-22.519-12.743-47.913-19.547-73.788-19.772l-32.386 19.16zm-387.81-44.844 5.909 5.909c7.268 7.268 12.495 16.321 15.155 26.248l-0.073-8.11 1.019-5.298c0.866-4.508-0.559-9.152-3.805-12.398-3.246-3.245-7.89-4.67-12.397-3.803zm468.41-187.56-1.477 19.685c-1.537 20.488-6.871 40.791-15.725 59.863-7.694 16.574-12.326 34.215-13.664 52.014-3.219 42.911-25.672 83.478-61.014 110.24-21.165 16.03-49.021 18.111-70.186 5.247-13.257-9.494-21.474-13.603-27.552-34.373-0.689 13.538 2.239 28.041 13.578 40.602l-25.156 11.214c-23.338 10.405-45.506 23.512-66.028 39.012 3.024-9.211 3.64-19.18 1.586-28.926l-2.264-10.753c0.818 15.82-3.381 31.495-12 44.786l-7.211 11.121h1e-3c-1.101 0.971-2.198 1.947-3.289 2.931-22.594 20.41-55.31 22.855-77.904 5.823l-86.408-49.934-2.446-24.273c-3.191-31.671-25.798-56.587-56.775-62.572s-63.859 8.21-82.577 35.65l12.592-44.711c8.913-31.651 40.745-52.408 72.036-46.975l6.22-12.674c12.675-25.833 38.811-42.876 66.698-43.495l62.099 29.791c30.869 14.807 49.779 46.144 49.167 81.482 10.07-32.159-4.247-59.336-17.678-76.756v-0.023l-9.678-8.976c-10.511-9.747-16.866-23.778-17.779-39.266-1.321-22.384-4.577-44.396-9.721-65.756h54.843l3.73 10.214c5.826 15.955 4.369 34.547-3.96 50.506-1.677 3.21-3.102 6.519-4.275 9.889 12.672-15.33 30.933-23.186 38.13-70.609h66.504l-2.959 20.963c-4.932 37.814-24.729 72.105-55.013 95.284 20.135-6.224 34.345-17.913 48.9-41.483l24.048 8.559c14.856 4.642 29.869 8.775 45.007 12.39l15.112-8.518c7.192-4.054 11.607-11.699 11.522-19.956-0.276-26.667-13.022-51.468-34.098-67.239h55.182l8.562 11.384c20.329 27.038 20.329 64.262 0 91.298l-11.822-2.851c-12.271-2.963-24.925-3.788-37.409-2.476 0.668 0.152 1.337 0.305 2.005 0.454 18.146 4.072 34.617 13.58 47.217 27.26l14.068-13.215c30.612-28.759 43.76-71.225 35.281-111.85z" fill="#888" fill-opacity=".08" fill-rule="evenodd"/></g></g></svg>
