<?xml version="1.0" encoding="UTF-8"?>
<svg width="350" height="350" version="1.1" viewBox="0 0 70 70" xml:space="preserve" xmlns="http://www.w3.org/2000/svg"><defs><linearGradient id="linearGradient882" x1="449.67" x2="722.59" y1="227.65" y2="227.65" gradientTransform="translate(0,-1.3857)" gradientUnits="userSpaceOnUse"><stop stop-color="#ceff1a" offset="0"/><stop stop-color="#3ac1a8" offset="1"/></linearGradient><linearGradient id="linearGradient4524" x1="527.46" x2="670.82" y1="350.24" y2="350.24" gradientUnits="userSpaceOnUse"><stop stop-color="#ceff1a" offset="0"/><stop stop-color="#1aadc0" offset="1"/></linearGradient></defs><g transform="translate(-69.605 -44.005)"><circle cx="104.6" cy="79.005" r="32.795" display="block" stroke="#000" stroke-width=".2"/><g transform="matrix(.13586 0 0 .13586 69.824 44.224)" display="block"><g transform="matrix(.70267 0 0 .70267 -164.34 80.394)" fill-rule="evenodd"><path d="m579.46-23.049c-44.849 3.781-92.137 16.66-122.4 52.221-27.508 29.662-43.222 74.455-26.75 113.44 15.683 41.806 53.632 72.059 95.549 85.149 30.62 11.783 63.903 13.538 96.217 14.824-24.93-12.657-53.713-17.271-77.817-32.173-29.791-16.293-56.525-43.836-59.637-79.223-2.6921-14.651-0.36302-35.497 3.4719-46.777 2.2436-9.0031 5.9886-17.535 11.559-26.969 31.15-48.207 90.924-71.751 147.04-69.086 12.306-0.19328 40.387 3.9376 14.164-3.3449-26.165-8.176-54.194-8.931-81.4-8.06zm-24 226.32c39.973 19.607 85.478 28.167 121.07 56.422 18.867 15.736 35.647 33.164 43.688 56.914 18.096 50.518-5.7863 110.87-52.755 136.35-56.558 34.289-136.93 19.55-178.41-31.965-21.185-24.347-32.754-55.267-54.87-78.881-12.091 1.8011-14.852 16.516-20.484 25.365-6.8652 18.057-16.521 36.944-14.635 56.382 18.764 34.656 53.709 57.074 88 74.382 48.379 22.351 104.08 30.011 156.82 21.563 45.473-8.157 88.121-31.827 119.38-65.737 29.623-33.299 43.79-82.271 27.445-125.06-13.076-42.608-49.771-72.979-88.845-91.4-38.861-16.158-81.026-21.721-122.24-28.279-8.295-1.0041-16.174-3.7758-24.157-6.0556z" fill="#fefefe"/><path d="m592.08 279.35c-33.373 3.2377-61.22 30.879-64.227 64.443-4.2596 37.851 26.543 74.357 64.4 77.257 35.946 4.137 70.913-22.517 77.2-57.624 7.1204-33.923-14.387-69.885-47-80.433-9.6138-3.5106-20.204-4.6401-30.373-3.643z" fill="url(#linearGradient4524)"/><path d="m631.06-12.456c-51.215 1.9755-103.14 26.016-131.6 69.661-21.934 37.775-17.451 91.913 16.198 121.59 26.668 25.497 62.868 37.553 97.002 49.36 36.67 14.39 74.258 34.385 94.043 70.246 24.272 45.841 11.677 109.24-32.062 138.4-32.688 24.558-76.926 31.577-115.98 19-36.11-9.3125-63.908-37.238-82-68.712-9.0525-13.654-16.14-28.56-24.767-42.288-6.793 1.7464 4.0577 11.306 5.167 16.229 16.997 29.487 33.773 60.485 62.573 79.929 32.733 23.105 76.736 30.013 115.45 19.842 29.94-9.7467 57.819-28.642 73.531-56.8 22.534-40.509 17.955-95.562-14.755-129.15-30.303-31.78-72.725-47.394-113.4-61.254-29.033-11.159-57.481-27.493-76.032-53.149-24.54-38.572-18.14-94.86 16.918-124.7 34.334-34.541 83.729-49.194 131.93-46.079 11.204-0.05959 32.202-0.7599 10.286-1.517-10.815-0.70762-21.657-1.4999-32.5-0.617z" fill="url(#linearGradient882)"/></g></g></g></svg>
