<svg
   xmlns:svg="http://www.w3.org/2000/svg"
   xmlns="http://www.w3.org/2000/svg"
   width="80"
   height="80"
   viewBox="0 0 21.166665 21.166665"
   version="1.1" >
  <defs/>
  <g
     transform="translate(-73.178314,-81.702634)">
    <g
       transform="translate(-0.17406796)">
      <path
         style="fill:currentColor;stroke-width:1"
         d="m 83.345986,100.95746 c -0.332801,-0.64805 -0.130804,-2.607109 0.898115,-2.039094 0.320117,0.760002 0.363817,1.969864 -0.390183,2.479034 -0.266769,0.0591 -0.429689,-0.23479 -0.507932,-0.43994 z m -6.076579,-2.418321 c 0.0037,-0.863346 0.832819,-1.547608 1.518095,-1.978261 1.287128,-0.01788 0.427098,1.42704 -0.203498,1.804629 -0.336387,0.369357 -0.99358,0.875514 -1.314597,0.173632 z m 11.6453,-0.504156 c -0.848192,-0.375795 -0.652318,-1.995179 0.377125,-1.330438 0.516658,0.483304 1.598492,1.239479 1.122998,2.023511 -0.550679,0.519655 -1.119142,-0.364673 -1.500123,-0.693073 z M 81.78966,96.538031 c -1.974669,-0.964445 -3.169875,-3.302809 -2.657333,-5.46415 0.403246,-2.173989 2.460159,-3.787781 4.639049,-3.841533 2.5522,-0.145546 4.870602,2.054609 5.031906,4.573229 0.299781,2.864895 -2.434036,5.478548 -5.26332,5.235181 -0.610009,-0.04387 -1.209525,-0.217441 -1.750302,-0.502727 z m 3.857898,-1.333452 c 2.176044,-1.079766 2.370883,-4.516673 0.415599,-5.90773 -1.558774,-1.146819 -3.99248,-0.790157 -5.079333,0.83724 -1.323035,1.745431 -0.437567,4.563374 1.61036,5.294617 0.987681,0.382845 2.124244,0.264501 3.053374,-0.224127 z M 74.781369,92.483642 c -0.443511,-0.976187 1.083201,-1.163931 1.735568,-0.960636 0.947992,-0.01589 0.983584,1.183793 0.02097,1.19912 -0.565057,0.09987 -1.300036,0.172246 -1.756538,-0.238484 z m 15.740845,0 c -0.443512,-0.976187 1.083201,-1.163931 1.735568,-0.960636 0.947992,-0.01589 0.983583,1.183793 0.02097,1.19912 -0.565057,0.09987 -1.300036,0.172246 -1.756538,-0.238484 z m -12.697647,-5.5388 c -0.848193,-0.375794 -0.652318,-1.995179 0.377125,-1.330438 0.516657,0.483305 1.598492,1.239479 1.122998,2.023512 -0.550679,0.519655 -1.119142,-0.364674 -1.500123,-0.693074 z m 10.53498,0.504157 c 0.0037,-0.863346 0.83282,-1.547608 1.518096,-1.978262 1.287127,-0.01788 0.427097,1.42704 -0.203499,1.804629 -0.336387,0.369357 -0.99358,0.875515 -1.314597,0.173633 z m -5.013561,-2.232384 c -0.332801,-0.648054 -0.130804,-2.60711 0.898115,-2.039094 0.320117,0.760003 0.363817,1.969866 -0.390183,2.47904 -0.266769,0.05911 -0.429689,-0.234795 -0.507932,-0.439946 z"
         />
    </g>
  </g>
</svg>
