<svg
   xmlns:svg="http://www.w3.org/2000/svg"
   xmlns="http://www.w3.org/2000/svg"
   version="1.1"
   viewBox="0 0 22.895774 22.895775"
   height="86.53521"
   width="86.53521">
  <defs/>
  <g
     transform="translate(-99.677116,-123.02235)"
     id="layer1">
    <path
       id="path926"
       d="m 108.88239,128.95116 c 1.45846,-0.72352 0.72255,0.17807 0.78941,1.78883 0.0356,0.85631 0.18084,1.65545 0.57989,2.28529 0.52524,0.829 1.04348,1.24986 1.95222,1.7082 0.65645,0.33109 1.47222,0.38795 2.36697,0.37109 1.70843,-0.0322 2.69388,-0.5126 1.97791,0.6556 -1.11874,1.82535 -2.13911,2.42116 -3.25661,2.87781 -1.02859,0.42033 -2.51051,0.42031 -3.79928,0.007 -0.96993,-0.31106 -2.33886,-1.37403 -2.95829,-2.64407 -0.57479,-1.17851 -0.56595,-2.38986 -0.1865,-3.87076 0.36476,-1.07114 1.03165,-2.30072 2.53428,-3.17899 z"
       style="fill:none;stroke:currentColor;stroke-width:1.26499999;stroke-linecap:butt;stroke-linejoin:miter;stroke-miterlimit:4;stroke-dasharray:none;stroke-opacity:1" />
  </g>
</svg>
