<svg
   xmlns:svg="http://www.w3.org/2000/svg"
   xmlns="http://www.w3.org/2000/svg"
   width="86.53521"
   height="86.53521"
   viewBox="0 0 22.895774 22.895775"
   version="1.1">
  <defs/>
  <g
     transform="translate(-99.677116,-123.02235)">
    <g
       transform="matrix(0.84247478,0,0,0.84247478,17.778495,21.319209)">
      <path
         id="path4583"
         style="fill:currentColor;stroke-width:1.18697906"
         d="m 108.36918,139.41361 c -1.12626,-0.5684 -2.11185,-0.88903 -3.35336,-0.94946 -1.77074,-0.27861 -3.36,-1.89676 -3.34164,-3.96661 0.058,-1.43642 1.53905,-2.95448 2.96955,-3.36462 0.90894,-0.10663 1.83196,-0.36517 2.49838,-1.02787 1.21656,-0.98532 2.80291,-1.66802 4.39017,-1.34321 1.34903,0.23648 2.56346,0.96864 3.56699,1.8738 0.75906,0.56181 2.0653,0.33366 2.84738,0.83827 1.43424,0.90094 2.18967,1.64487 2.08095,3.71777 -0.0435,1.47028 -2.27591,3.34307 -3.84181,3.32984 -1.28612,0.0119 -2.19753,0.35597 -3.33659,0.91389 -0.72892,0.32992 -0.97972,0.54981 -2.11604,0.57562 -0.63916,0.0238 -1.95284,-0.39867 -2.36398,-0.59742 z m 7.32402,-2.1354 c 1.35448,-0.044 2.66188,-0.85334 2.88543,-2.29124 0.0286,-1.28931 -0.54906,-2.30799 -2.12293,-2.51343 -0.87181,-0.0669 -2.1648,-0.053 -2.81516,-0.97319 -0.86034,-0.86939 -1.58814,-1.37511 -2.81867,-1.32672 -1.23589,0.0141 -2.1162,0.49944 -3.04301,1.29443 -0.71821,0.53589 -1.85919,0.94822 -2.75404,1.01845 -1.32127,0.69739 -2.05461,1.42719 -1.6859,2.94284 0.47997,1.27994 1.53412,1.72895 2.8586,1.70789 0.88923,-0.0412 1.72867,0.3235 2.47397,0.76652 1.46275,0.5067 2.74884,0.49332 4.15933,-0.1681 0.73643,-0.61022 2.04038,-0.61075 2.86238,-0.45745 z" />
    </g>
  </g>
</svg>
