<svg
   xmlns:svg="http://www.w3.org/2000/svg"
   xmlns="http://www.w3.org/2000/svg"
   version="1.1"
   viewBox="0 0 22.895774 22.895775"
   height="86.53521"
   width="86.53521">
  <defs/>
  <g
     style="fill:none;stroke:currentColor;stroke-width:1.65308957;stroke-opacity:1;stroke-miterlimit:4;stroke-dasharray:none"
     id="g7"
     transform="matrix(0.80026921,0,0,0.80026921,-76.475438,-93.992316)">
    <g
       style="fill:none;stroke:currentColor;stroke-width:1.96218285;stroke-opacity:1;stroke-miterlimit:4;stroke-dasharray:none"
       id="g5"
       transform="matrix(0.84247478,0,0,0.84247478,17.778495,21.319209)">
      <path
         id="path4583"
         d="m 107.15838,140.87072 c -1.12626,-0.5684 -2.11185,-0.88903 -3.35336,-0.94946 -1.77074,-0.27861 -3.36,-1.89676 -3.34164,-3.96661 0.058,-1.43642 1.53905,-2.95448 2.96955,-3.36462 0.90894,-0.10663 1.83196,-0.36517 2.49838,-1.02787 1.21656,-0.98532 2.80291,-1.66802 4.39017,-1.34321 1.34903,0.23648 2.56346,0.96864 3.56699,1.8738 0.75906,0.56181 2.0653,0.33366 2.84738,0.83827 1.43424,0.90094 2.18967,1.64487 2.08095,3.71777 -0.0435,1.47028 -2.27591,3.34307 -3.84181,3.32984 -1.28612,0.0119 -2.19753,0.35597 -3.33659,0.91389 -0.72892,0.32992 -0.97972,0.54981 -2.11604,0.57562 -0.63916,0.0238 -1.95284,-0.39867 -2.36398,-0.59742 z"
         style="fill:none;stroke:currentColor;stroke-width:1.96218285;stroke-opacity:1;stroke-miterlimit:4;stroke-dasharray:none" />
    </g>
  </g>
  <g
     style="stroke-width:1.96653;stroke-miterlimit:4;stroke-dasharray:none"
     transform="matrix(0.67346168,0,0,0.6719747,-65.141655,-84.133967)"
     id="layer1">
    <path
       id="path926"
       d="m 110.41832,142.16938 c -0.96993,-0.31106 -2.33886,-1.37403 -2.95829,-2.64407 -0.57479,-1.17851 -0.56595,-2.38986 -0.1865,-3.87076 0.36476,-1.07114 1.03165,-2.30072 2.53428,-3.17899 1.45846,-0.72352 0.72255,0.17807 0.78941,1.78883 0.0356,0.85631 0.18084,1.65545 0.57989,2.28529 0.52524,0.829 1.04348,1.24986 1.95222,1.7082 0.65645,0.33109 1.47222,0.38795 2.36697,0.37109 1.70843,-0.0322 2.69388,-0.5126 1.97791,0.6556 -0.55937,0.91267 -1.09415,1.51796 -1.62877,1.95217"
       style="fill:none;stroke:currentColor;stroke-width:1.96653;stroke-linecap:butt;stroke-linejoin:miter;stroke-miterlimit:4;stroke-dasharray:none;stroke-opacity:1" />
  </g>
</svg>
