<svg
   xmlns:svg="http://www.w3.org/2000/svg"
   xmlns="http://www.w3.org/2000/svg"
   width="150"
   height="150"
   viewBox="0 0 40 40"
   version="1.1">
  <defs/>
  <g
     transform="translate(-86.133993,-122.48302)">
    <g
       transform="translate(1.4957841,8.5292723)">
      <path
         style="fill:currentColor;stroke-width:1"
         d="m 93.829454,152.78616 c -5.024873,-1.51946 -7.438327,-8.61925 -3.900487,-12.67527 2.687266,-3.65698 5.901384,-6.89516 8.51824,-10.60653 2.419043,-1.05347 2.148523,2.70316 2.584053,4.14696 0.85571,3.89751 2.56506,7.59064 3.12262,11.54911 0.20168,4.80816 -4.795667,8.8261 -9.448943,7.81805 -0.296429,-0.0584 -0.58917,-0.13578 -0.875483,-0.23232 z m 4.727023,-2.11598 c 2.687823,-1.24161 4.498593,-4.61383 3.188413,-7.45299 -0.9955,-3.49409 -2.224128,-6.91889 -3.140473,-10.436 -2.727761,3.33676 -5.889849,6.38815 -8.023757,10.16109 -1.63312,3.99601 2.249918,8.95509 6.548534,8.1299 0.490274,-0.0725 0.971441,-0.20734 1.427283,-0.402 z m 13.346973,-2.8798 c -4.06492,-1.3525 -6.43801,-7.02316 -3.60336,-10.54397 2.54977,-3.19504 5.70441,-5.91653 7.80683,-9.4584 2.24735,-1.22138 2.3227,2.59169 2.7665,3.97039 0.84503,3.66368 1.99332,7.36797 1.82284,11.16008 -0.77019,3.71846 -5.22662,6.23437 -8.79281,4.8719 z m 4.67366,-2.34169 c 2.27033,-1.17429 2.48131,-4.14604 1.95755,-6.36509 -0.43688,-2.69433 -1.26739,-5.30052 -1.94705,-7.93842 -2.42689,2.74403 -5.34728,5.14088 -7.22867,8.31003 -1.06945,3.0317 1.35074,7.04657 4.77398,6.65364 0.8501,-0.0266 1.70642,-0.22721 2.44419,-0.66016 z m -10.16944,-15.05916 c -3.93333,-0.58543 -6.15408,-6.04176 -3.36811,-9.04387 1.82675,-2.55567 3.94742,-4.90978 6.36295,-6.92228 2.54433,-0.12209 1.79554,3.42782 2.64867,5.03227 0.57601,2.55864 1.62901,5.3756 0.48793,7.92461 -1.08715,2.18943 -3.70973,3.60506 -6.13144,3.00927 z m 3.36964,-2.54217 c 1.89482,-1.71819 1.3502,-4.55942 0.60649,-6.69625 -0.43171,-1.08174 -0.25114,-3.52087 -1.32589,-3.65667 -2.08153,2.11288 -4.77586,4.19345 -5.19826,7.31994 0.007,2.39147 2.57518,4.51708 4.89628,3.493 0.35657,-0.11343 0.70121,-0.26599 1.02138,-0.46002 z"
         />
    </g>
  </g>
</svg>
