<svg
   xmlns:svg="http://www.w3.org/2000/svg"
   xmlns="http://www.w3.org/2000/svg"
   width="40.42535mm"
   height="40.42535mm"
   viewBox="0 0 40.42535 40.42535"
   version="1.1">
  <defs/>
  <g
     transform="translate(-87.888512,-127.10875)">
    <g
       transform="translate(0.06623193,-0.77266618)">
      <path
         style="fill:currentColor;stroke-width:1"
         d="m 95.899032,163.09022 c -0.107356,-0.27976 -0.02181,-0.83263 0.190101,-1.22859 0.53781,-1.00491 0.508601,-1.063 -0.598509,-1.19039 -1.651167,-0.18998 -1.23261,-1.1685 0.554932,-1.29734 1.28948,-0.0929 1.651451,-0.29576 2.234578,-1.25211 0.95123,-1.56005 0.901862,-1.67783 -0.70329,-1.67783 -1.216169,0 -1.504288,0.16581 -2.175656,1.25211 -0.79926,1.29323 -1.575118,1.6093 -1.896232,0.77249 -0.101227,-0.26379 -0.04042,-0.7065 0.13512,-0.9838 0.530607,-0.83818 0.380832,-1.0408 -0.769345,-1.0408 -0.853847,0 -1.072947,-0.13986 -0.980744,-0.62606 0.07161,-0.37759 0.507955,-0.67098 1.099471,-0.73925 1.046524,-0.12079 1.156357,-0.30758 0.650618,-1.10647 -0.175543,-0.2773 -0.236347,-0.72001 -0.13512,-0.98381 0.321114,-0.83681 1.096972,-0.52074 1.896232,0.77249 0.671368,1.0863 0.959487,1.25211 2.175656,1.25211 1.60865,0 1.655697,-0.11582 0.690236,-1.69929 -0.602083,-0.98749 -0.91632,-1.16268 -2.085517,-1.16268 -0.75714,0 -1.472851,-0.0962 -1.590468,-0.21385 -0.454282,-0.45428 0.213543,-1.21713 1.065516,-1.21713 0.714426,0 0.840947,-0.12596 0.628857,-0.62606 -0.809432,-1.9086 0.37945,-3.12512 1.2373,-1.26606 l 0.460406,0.99775 0.541375,-0.80493 c 0.574376,-0.854 1.335291,-1.04735 1.713491,-0.43541 0.12561,0.20324 -0.10094,0.92767 -0.50344,1.60986 l -0.731817,1.24034 0.738764,1.25211 c 0.406323,0.68866 0.787453,1.25211 0.846963,1.25211 0.0595,0 0.44215,-0.566 0.85032,-1.25779 0.73267,-1.24179 0.73349,-1.27197 0.0645,-2.37206 -1.09676,-1.80348 -0.0138,-3.01833 1.14915,-1.28916 l 0.54138,0.80493 0.4604,-0.99775 c 0.84902,-1.8399 2.0505,-0.646 1.24746,1.23958 -0.19958,0.46864 -0.0343,0.6249 0.75657,0.7155 1.67571,0.19194 1.27943,1.16987 -0.52681,1.30005 -1.28948,0.0929 -1.65145,0.29576 -2.23458,1.25211 -0.95123,1.56006 -0.90186,1.67783 0.70329,1.67783 1.21617,0 1.50429,-0.16581 2.17566,-1.25211 0.79925,-1.29323 1.57511,-1.6093 1.89623,-0.77249 0.10122,0.2638 0.0404,0.70651 -0.13512,0.98381 -0.5286,0.83499 -0.38166,1.04079 0.74311,1.04079 0.83474,0 1.07324,0.159 1.07324,0.7155 0,0.56197 -0.2385,0.71549 -1.11151,0.71549 -0.91291,0 -1.06798,0.11186 -0.86786,0.62606 0.134,0.34433 0.25079,0.70655 0.25951,0.80493 0.13246,1.49406 -0.88417,1.39617 -1.8576,-0.17888 -0.67137,-1.0863 -0.95949,-1.25211 -2.17566,-1.25211 -1.60515,0 -1.65452,0.11778 -0.70329,1.67783 0.58313,0.95635 0.9451,1.15918 2.23458,1.25211 1.80624,0.13018 2.20252,1.10811 0.52681,1.30006 -0.79091,0.0906 -0.95615,0.24686 -0.75657,0.71549 0.80304,1.88559 -0.39844,3.07949 -1.24746,1.23959 l -0.4604,-0.99776 -0.54138,0.80493 c -0.57437,0.854 -1.33529,1.04736 -1.71349,0.43541 -0.12561,-0.20323 0.10094,-0.92767 0.50344,-1.60986 l 0.73182,-1.24034 -0.73876,-1.25211 c -0.40632,-0.68866 -0.78746,-1.25211 -0.84697,-1.25211 -0.0595,0 -0.44064,0.56345 -0.846963,1.25211 l -0.738764,1.25211 0.731817,1.24034 c 0.4025,0.68219 0.62905,1.40663 0.50344,1.60986 -0.3782,0.61195 -1.139115,0.41859 -1.713491,-0.43541 l -0.541375,-0.80493 -0.454051,0.98381 c -0.488795,1.05908 -1.313738,1.29954 -1.630091,0.47513 z m 17.517098,-3.96772 c -0.11421,-0.29764 -0.0243,-0.76206 0.19972,-1.03204 0.32354,-0.38984 0.2161,-0.53888 -0.52201,-0.72413 -1.23539,-0.31007 -0.93234,-1.07277 0.48185,-1.2127 0.76051,-0.0752 1.36961,-0.45295 1.87498,-1.16268 l 0.74853,-1.05122 h -1.39792 c -1.14395,0 -1.47196,0.16249 -1.80542,0.89437 -0.40786,0.89515 -1.27261,1.18762 -1.65968,0.56134 -0.1132,-0.18316 -0.0422,-0.43414 0.15776,-0.55773 0.61576,-0.38056 0.40396,-0.84248 -0.44134,-0.96253 -0.44272,-0.0629 -0.80493,-0.3558 -0.80493,-0.65094 0,-0.29514 0.36221,-0.58806 0.80493,-0.65094 0.8453,-0.12005 1.0571,-0.58196 0.44134,-0.96252 -0.19997,-0.12359 -0.27096,-0.37457 -0.15776,-0.55774 0.37406,-0.60523 1.10865,-0.34663 1.59458,0.56134 0.38493,0.71924 0.7518,0.89437 1.87355,0.89437 h 1.39489 l -0.74853,-1.05122 c -0.51365,-0.72135 -1.11065,-1.0862 -1.90253,-1.16268 -1.33635,-0.12907 -1.61166,-1.11962 -0.36063,-1.2975 0.68504,-0.0974 0.73511,-0.20609 0.36671,-0.796 -0.32886,-0.52658 -0.32948,-0.78038 -0.003,-1.10714 0.32676,-0.32676 0.58514,-0.2263 1.12714,0.43826 0.63252,0.77554 0.72769,0.79927 0.94692,0.23614 0.29876,-0.76741 1.24042,-0.83162 1.24042,-0.0846 0,0.29781 -0.18818,0.84278 -0.41816,1.21105 -0.3224,0.51625 -0.31247,0.92474 0.0434,1.78387 0.58072,1.40197 0.88429,1.40197 1.465,0 0.35587,-0.85913 0.36581,-1.26762 0.0434,-1.78387 -0.22999,-0.36827 -0.41816,-0.91324 -0.41816,-1.21105 0,-0.74704 0.94166,-0.68283 1.24041,0.0846 0.21923,0.56313 0.3144,0.5394 0.94693,-0.23614 0.54199,-0.66456 0.80037,-0.76502 1.12714,-0.43826 0.32499,0.325 0.32594,0.58088 0.004,1.09632 -0.36273,0.58084 -0.29717,0.70319 0.48156,0.89864 1.21394,0.30468 0.88902,1.0673 -0.51382,1.20598 -1.01433,0.10028 -2.21301,1.14861 -2.21301,1.93545 0,0.15298 0.53624,0.27815 1.19166,0.27815 0.90497,0 1.30681,-0.21517 1.67031,-0.89437 0.46403,-0.86705 1.07392,-1.13218 1.53765,-0.66845 0.12425,0.12425 0.0709,0.51556 -0.11857,0.86957 -0.2797,0.52263 -0.19325,0.66514 0.45977,0.75789 0.44234,0.0628 0.80425,0.35571 0.80425,0.65085 0,0.29514 -0.36191,0.58802 -0.80425,0.65085 -0.65302,0.0927 -0.73947,0.23526 -0.45977,0.75789 0.18946,0.35402 0.24282,0.74532 0.11857,0.86958 -0.46373,0.46372 -1.07362,0.19859 -1.53765,-0.66846 -0.3635,-0.6792 -0.76534,-0.89437 -1.67031,-0.89437 -1.33228,0 -1.43471,0.2093 -0.65039,1.32907 0.32195,0.45964 1.01051,0.81806 1.6993,0.88453 1.33979,0.1293 1.61804,1.11959 0.36465,1.2978 -0.68504,0.0974 -0.73511,0.20609 -0.3667,0.796 0.32885,0.52658 0.32948,0.78038 0.003,1.10714 -0.32676,0.32676 -0.58514,0.2263 -1.12713,-0.43825 -0.63253,-0.77555 -0.7277,-0.79928 -0.94693,-0.23614 -0.29875,0.76741 -1.24041,0.83162 -1.24041,0.0846 0,-0.29781 0.18817,-0.84279 0.41816,-1.21105 0.3224,-0.51625 0.31246,-0.92474 -0.0434,-1.78388 -0.56981,-1.37565 -0.7556,-1.38359 -1.50612,-0.0644 -0.51087,0.89798 -0.52509,1.13731 -0.10081,1.69703 0.651,0.85883 0.64982,1.90373 -0.002,1.90373 -0.28536,0 -0.66933,-0.26891 -0.85326,-0.59758 -0.30099,-0.53784 -0.3829,-0.51996 -0.81933,0.17888 -0.56925,0.91152 -0.97014,0.98647 -1.25841,0.23527 z m -7.51267,-14.30986 c -0.11422,-0.29764 -0.0243,-0.76206 0.19971,-1.03204 0.32354,-0.38984 0.2161,-0.53888 -0.52201,-0.72413 -1.23539,-0.31006 -0.93234,-1.07277 0.48185,-1.2127 0.76052,-0.0753 1.36961,-0.45294 1.87498,-1.16267 l 0.74854,-1.05122 h -1.39793 c -1.14395,0 -1.47195,0.16248 -1.80542,0.89436 -0.40785,0.89515 -1.27261,1.18763 -1.65967,0.56134 -0.11321,-0.18316 -0.0422,-0.43414 0.15776,-0.55773 0.61576,-0.38056 0.40396,-0.84248 -0.44135,-0.96253 -0.44271,-0.0629 -0.80493,-0.3558 -0.80493,-0.65094 0,-0.29514 0.36222,-0.58806 0.80493,-0.65093 0.84531,-0.12006 1.05711,-0.58197 0.44135,-0.96253 -0.19997,-0.12359 -0.27097,-0.37457 -0.15776,-0.55774 0.37405,-0.60523 1.10865,-0.34663 1.59458,0.56134 0.36349,0.6792 0.76534,0.89437 1.67031,0.89437 1.33228,0 1.4347,-0.2093 0.65039,-1.32907 -0.32195,-0.45964 -1.01051,-0.81805 -1.6993,-0.88453 -1.33979,-0.12929 -1.61804,-1.11958 -0.36465,-1.29779 0.68503,-0.0974 0.73511,-0.2061 0.3667,-0.796 -0.32886,-0.52659 -0.32948,-0.78038 -0.003,-1.10715 0.32676,-0.32676 0.58514,-0.22629 1.12714,0.43826 0.63253,0.77554 0.72769,0.79928 0.94692,0.23614 0.29876,-0.76741 1.24042,-0.83162 1.24042,-0.0846 0,0.29781 -0.18817,0.84278 -0.41816,1.21105 -0.3224,0.51625 -0.31246,0.92474 0.0434,1.78388 0.58072,1.40197 0.88429,1.40197 1.46501,0 0.35586,-0.85914 0.3658,-1.26763 0.0434,-1.78388 -0.22999,-0.36827 -0.41816,-0.91324 -0.41816,-1.21105 0,-0.74704 0.94166,-0.68283 1.24042,0.0846 0.21923,0.56314 0.3144,0.5394 0.94692,-0.23614 0.542,-0.66455 0.80038,-0.76502 1.12714,-0.43826 0.325,0.325 0.32594,0.58088 0.004,1.09633 -0.36274,0.58083 -0.29717,0.70318 0.48155,0.89863 1.21394,0.30468 0.88903,1.0673 -0.51381,1.20598 -1.01434,0.10028 -2.21302,1.14861 -2.21302,1.93545 0,0.15298 0.53625,0.27815 1.19166,0.27815 0.90497,0 1.30682,-0.21517 1.67031,-0.89437 0.46403,-0.86704 1.07392,-1.13218 1.53765,-0.66845 0.12425,0.12425 0.0709,0.51556 -0.11857,0.86957 -0.2797,0.52263 -0.19325,0.66514 0.45977,0.75789 0.44234,0.0628 0.80425,0.35571 0.80425,0.65085 0,0.29514 -0.36191,0.58803 -0.80425,0.65085 -0.65302,0.0927 -0.73947,0.23526 -0.45977,0.75789 0.18947,0.35402 0.24282,0.74533 0.11857,0.86958 -0.46373,0.46373 -1.07362,0.19859 -1.53765,-0.66846 -0.36349,-0.67919 -0.76534,-0.89436 -1.67031,-0.89436 -1.33228,0 -1.4347,0.20929 -0.65039,1.32906 0.32195,0.45964 1.01051,0.81806 1.6993,0.88453 1.33979,0.1293 1.61804,1.11959 0.36466,1.2978 -0.68504,0.0974 -0.73511,0.20609 -0.36671,0.796 0.32886,0.52659 0.32948,0.78038 0.003,1.10714 -0.32676,0.32676 -0.58514,0.2263 -1.12714,-0.43825 -0.63252,-0.77555 -0.72769,-0.79928 -0.94692,-0.23614 -0.29876,0.76741 -1.24042,0.83162 -1.24042,0.0846 0,-0.29781 0.18817,-0.84278 0.41816,-1.21105 0.3224,-0.51625 0.31246,-0.92474 -0.0434,-1.78388 -0.25386,-0.61286 -0.58349,-1.1143 -0.7325,-1.1143 -0.14902,0 -0.47865,0.50144 -0.73251,1.1143 -0.35586,0.85914 -0.3658,1.26763 -0.0434,1.78388 0.22999,0.36827 0.41816,0.91324 0.41816,1.21105 0,0.74704 -0.94166,0.68283 -1.24042,-0.0846 -0.22166,-0.56939 -0.30317,-0.5532 -0.90054,0.17887 -0.77222,0.94635 -1.02723,0.99773 -1.30888,0.26375 z"
         />
    </g>
  </g>
</svg>
